<mxfile host="app.diagrams.net" modified="2021-06-12T21:22:18.046Z" agent="5.0 (X11)" etag="bEVOqUlAQGT0WCYTcLQz" version="14.7.7" type="github">
  <diagram id="GHI4hGSpwL_b-y7SddgL" name="Page-1">
    <mxGraphModel dx="1355" dy="671" grid="1" gridSize="10" guides="1" tooltips="1" connect="1" arrows="1" fold="1" page="1" pageScale="1" pageWidth="850" pageHeight="1100" math="0" shadow="0">
      <root>
        <mxCell id="0" />
        <mxCell id="1" parent="0" />
        <mxCell id="cizuM7O_poYgmAaUD8hP-40" value="" style="rounded=0;whiteSpace=wrap;html=1;" vertex="1" parent="1">
          <mxGeometry x="10" y="140" width="490" height="150" as="geometry" />
        </mxCell>
        <mxCell id="cizuM7O_poYgmAaUD8hP-5" style="edgeStyle=orthogonalEdgeStyle;rounded=0;orthogonalLoop=1;jettySize=auto;html=1;entryX=0.63;entryY=-0.034;entryDx=0;entryDy=0;entryPerimeter=0;" edge="1" parent="1" source="cizuM7O_poYgmAaUD8hP-1" target="cizuM7O_poYgmAaUD8hP-3">
          <mxGeometry relative="1" as="geometry" />
        </mxCell>
        <mxCell id="cizuM7O_poYgmAaUD8hP-6" style="edgeStyle=orthogonalEdgeStyle;rounded=0;orthogonalLoop=1;jettySize=auto;html=1;" edge="1" parent="1" source="cizuM7O_poYgmAaUD8hP-1" target="cizuM7O_poYgmAaUD8hP-4">
          <mxGeometry relative="1" as="geometry" />
        </mxCell>
        <mxCell id="cizuM7O_poYgmAaUD8hP-7" style="edgeStyle=orthogonalEdgeStyle;rounded=0;orthogonalLoop=1;jettySize=auto;html=1;entryX=0.63;entryY=-0.011;entryDx=0;entryDy=0;entryPerimeter=0;" edge="1" parent="1" source="cizuM7O_poYgmAaUD8hP-1" target="cizuM7O_poYgmAaUD8hP-2">
          <mxGeometry relative="1" as="geometry" />
        </mxCell>
        <mxCell id="cizuM7O_poYgmAaUD8hP-1" value="Load Balancer" style="shape=image;verticalLabelPosition=bottom;labelBackgroundColor=#ffffff;verticalAlign=top;aspect=fixed;imageAspect=0;image=data:image/svg+xml,PHN2ZyB4bWxuczpjYz0iaHR0cDovL2NyZWF0aXZlY29tbW9ucy5vcmcvbnMjIiB4bWxuczpkYz0iaHR0cDovL3B1cmwub3JnL2RjL2VsZW1lbnRzLzEuMS8iIHhtbG5zOmlua3NjYXBlPSJodHRwOi8vd3d3Lmlua3NjYXBlLm9yZy9uYW1lc3BhY2VzL2lua3NjYXBlIiB4bWxuczpyZGY9Imh0dHA6Ly93d3cudzMub3JnLzE5OTkvMDIvMjItcmRmLXN5bnRheC1ucyMiIHhtbG5zOnNvZGlwb2RpPSJodHRwOi8vc29kaXBvZGkuc291cmNlZm9yZ2UubmV0L0RURC9zb2RpcG9kaS0wLmR0ZCIgeG1sbnM6c3ZnPSJodHRwOi8vd3d3LnczLm9yZy8yMDAwL3N2ZyIgeG1sbnM9Imh0dHA6Ly93d3cudzMub3JnLzIwMDAvc3ZnIiB4bWxuczp4bGluaz0iaHR0cDovL3d3dy53My5vcmcvMTk5OS94bGluayIgdmVyc2lvbj0iMS4xIiBpZD0ic3ZnMTY2MzE0IiBpbmtzY2FwZTp2ZXJzaW9uPSIwLjkyLjMgKDI0MDU1NDYsIDIwMTgtMDMtMTEpIiBzb2RpcG9kaTpkb2NuYW1lPSJsb2FkX2JhbGFuY2VyXzMuc3ZnIiB4PSIwcHgiIHk9IjBweCIgdmlld0JveD0iMCAwIDM5LjAyIDMyLjExIiBzdHlsZT0iZW5hYmxlLWJhY2tncm91bmQ6bmV3IDAgMCAzOS4wMiAzMi4xMTsiIHhtbDpzcGFjZT0icHJlc2VydmUiPiYjeGE7PHNvZGlwb2RpOm5hbWVkdmlldyBib3JkZXJjb2xvcj0iIzY2NjY2NiIgYm9yZGVyb3BhY2l0eT0iMSIgZml0LW1hcmdpbi1ib3R0b209IjAiIGZpdC1tYXJnaW4tbGVmdD0iMCIgZml0LW1hcmdpbi1yaWdodD0iMCIgZml0LW1hcmdpbi10b3A9IjAiIGdyaWR0b2xlcmFuY2U9IjEwIiBndWlkZXRvbGVyYW5jZT0iMTAiIGlkPSJuYW1lZHZpZXcxNjYzMTYiIGlua3NjYXBlOmN1cnJlbnQtbGF5ZXI9InN2ZzE2NjMxNCIgaW5rc2NhcGU6Y3g9IjI2LjAxMjAyMiIgaW5rc2NhcGU6Y3k9IjIxLjQwMzk2MiIgaW5rc2NhcGU6cGFnZW9wYWNpdHk9IjAiIGlua3NjYXBlOnBhZ2VzaGFkb3c9IjIiIGlua3NjYXBlOndpbmRvdy1oZWlnaHQ9IjEwMTciIGlua3NjYXBlOndpbmRvdy1tYXhpbWl6ZWQ9IjEiIGlua3NjYXBlOndpbmRvdy13aWR0aD0iMTkyMCIgaW5rc2NhcGU6d2luZG93LXg9Ii04IiBpbmtzY2FwZTp3aW5kb3cteT0iLTgiIGlua3NjYXBlOnpvb209IjIwLjI0ODIxMyIgb2JqZWN0dG9sZXJhbmNlPSIxMCIgcGFnZWNvbG9yPSIjZmZmZmZmIiBzaG93Z3JpZD0iZmFsc2UiPiYjeGE7CTwvc29kaXBvZGk6bmFtZWR2aWV3PiYjeGE7PGcgaWQ9ImcxNjYzMTIiIHRyYW5zZm9ybT0idHJhbnNsYXRlKC0zLjA1NDE2NjllLTUpIj4mI3hhOwk8dGl0bGUgaWQ9InRpdGxlMTY2MzA1Ij5QYWdlLTE8L3RpdGxlPiYjeGE7CTxnIGlkPSJzaGFwZTk0NzUtMSI+JiN4YTsJCTx0aXRsZSBpZD0idGl0bGUxNjYzMDciPkxvYWQgQmFsYW5jZXIgIzM8L3RpdGxlPiYjeGE7CQk8cGF0aCBpZD0icGF0aDE2NjMwOSIgaW5rc2NhcGU6Y29ubmVjdG9yLWN1cnZhdHVyZT0iMCIgc3R5bGU9ImZpbGw6IzNGNTc2NTsiIGQ9Ik0zMy4zLDkuNDRjMC4xNy0wLjA5LDAuMzUtMC4zNSwwLjM1LTAuNiAgICBjMC0wLjM0LTAuMjctMC41OS0wLjYxLTAuNTljLTIuNzgsMC0yLjc4LDAtMi43OCwwYy0yLjQyLTAuNjktNC45NC0xLjk2LTcuOTctMi40N2MtMC41Mi0wLjc2LTEuMy0xLjM2LTIuMjYtMS41MyAgICBjMC0xLjQ0LDAtMS40NCwwLTEuNDRjMC41Mi0wLjE3LDAuOTYtMC43NywwLjk2LTEuMzZjMC0wLjc3LTAuNy0xLjQ1LTEuNTYtMS40NWMtMC43OCwwLTEuNDgsMC42OC0xLjQ4LDEuNDUgICAgYzAsMC41OSwwLjM1LDEuMTksMC44NywxLjM2YzAsMS40NCwwLDEuNDQsMCwxLjQ0Yy0wLjk1LDAuMTctMS43MywwLjc3LTIuMTcsMS41M2MtMy4xMiwwLjUxLTUuNTQsMS43OC04LjA3LDIuNDcgICAgYy0yLjU5LDAtMi41OSwwLTIuNTksMGMtMC4zNSwwLTAuNjEsMC4yNS0wLjYxLDAuNTljMCwwLjI1LDAuMDgsMC41MSwwLjM1LDAuNmMtNS4yLDEyLjIzLTUuMiwxMi4yMy01LjIsMTIuMjMgICAgYzEuMjEsMCwxLjIxLDAsMS4yMSwwYzQuMjUtMTAuMTEsNC4yNS0xMC4xMSw0LjI1LTEwLjExYzQuODUsMTEuMzgsNC44NSwxMS4zOCw0Ljg1LDExLjM4QzAsMjIuOTQsMCwyMi45NCwwLDIyLjk0ICAgIGMwLDIuMywyLjY5LDQuMTYsNS45OSw0LjE2YzMuMzcsMCw2LjA3LTEuODYsNi4wNy00LjE2QzYuMzMsOS41Miw2LjMzLDkuNTIsNi4zMyw5LjUyYzEwLjY3LDAsMTAuNjcsMCwxMC42NywwICAgIGMwLjQzLDAuNDMsMC44NywwLjY4LDEuNDcsMC44NWMwLDE3LjUsMCwxNy41LDAsMTcuNWMtNC4yNCwwLjI1LTcuNzIsMS45NS05LjExLDMuMzJjMCwwLjI1LDAsMC41LDAsMC45MmMwLjUzLDAsMTkuNjksMCwyMC4yOSwwICAgIGMwLTAuNDIsMC0wLjY3LDAtMC45MmMtMS4zOC0xLjM3LTQuOTMtMy4wNy05LjE4LTMuMzJjMC0xNy41LDAtMTcuNSwwLTE3LjVjMC41Mi0wLjE3LDEuMDMtMC40MiwxLjM4LTAuODUgICAgYzEwLjg0LDAsMTAuODQsMCwxMC44NCwwYy01LjIsMTIuMTUtNS4yLDEyLjE1LTUuMiwxMi4xNWMxLjIxLDAsMS4yMSwwLDEuMjEsMGM0LjI2LTEwLjExLDQuMjYtMTAuMTEsNC4yNi0xMC4xMSAgICBjNC44NSwxMS4zOCw0Ljg1LDExLjM4LDQuODUsMTEuMzhjLTEwLjg0LDAtMTAuODQsMC0xMC44NCwwYzAsMi4zLDIuNjgsNC4xNiw1Ljk5LDQuMTZjMy4zNywwLDYuMDYtMS44Niw2LjA2LTQuMTZMMzMuMyw5LjQ0eiIvPiYjeGE7CTwvZz4mI3hhOzwvZz4mI3hhOzwvc3ZnPg==;" vertex="1" parent="1">
          <mxGeometry x="160" width="134.06" height="110" as="geometry" />
        </mxCell>
        <mxCell id="cizuM7O_poYgmAaUD8hP-2" value="Web-1 + DVWA    " style="shape=image;verticalLabelPosition=bottom;labelBackgroundColor=#ffffff;verticalAlign=top;aspect=fixed;imageAspect=0;image=data:image/svg+xml,PHN2ZyB4bWxuczpjYz0iaHR0cDovL2NyZWF0aXZlY29tbW9ucy5vcmcvbnMjIiB4bWxuczpkYz0iaHR0cDovL3B1cmwub3JnL2RjL2VsZW1lbnRzLzEuMS8iIHhtbG5zOmlua3NjYXBlPSJodHRwOi8vd3d3Lmlua3NjYXBlLm9yZy9uYW1lc3BhY2VzL2lua3NjYXBlIiB4bWxuczpyZGY9Imh0dHA6Ly93d3cudzMub3JnLzE5OTkvMDIvMjItcmRmLXN5bnRheC1ucyMiIHhtbG5zOnNvZGlwb2RpPSJodHRwOi8vc29kaXBvZGkuc291cmNlZm9yZ2UubmV0L0RURC9zb2RpcG9kaS0wLmR0ZCIgeG1sbnM6c3ZnPSJodHRwOi8vd3d3LnczLm9yZy8yMDAwL3N2ZyIgeG1sbnM9Imh0dHA6Ly93d3cudzMub3JnLzIwMDAvc3ZnIiB4bWxuczp4bGluaz0iaHR0cDovL3d3dy53My5vcmcvMTk5OS94bGluayIgdmVyc2lvbj0iMS4xIiBpZD0ic3ZnMTkxMDMiIGlua3NjYXBlOnZlcnNpb249IjAuOTIuMyAoMjQwNTU0NiwgMjAxOC0wMy0xMSkiIHNvZGlwb2RpOmRvY25hbWU9IndlYl9zZXJ2ZXJfMy5zdmciIHg9IjBweCIgeT0iMHB4IiB2aWV3Qm94PSIwIDAgMTA3Ljk5IDg5LjI0IiBzdHlsZT0iZW5hYmxlLWJhY2tncm91bmQ6bmV3IDAgMCAxMDcuOTkgODkuMjQ7IiB4bWw6c3BhY2U9InByZXNlcnZlIj4mI3hhOzxzb2RpcG9kaTpuYW1lZHZpZXcgYm9yZGVyY29sb3I9IiM2NjY2NjYiIGJvcmRlcm9wYWNpdHk9IjEiIGZpdC1tYXJnaW4tYm90dG9tPSIwIiBmaXQtbWFyZ2luLWxlZnQ9IjAiIGZpdC1tYXJnaW4tcmlnaHQ9IjAiIGZpdC1tYXJnaW4tdG9wPSIwIiBncmlkdG9sZXJhbmNlPSIxMCIgZ3VpZGV0b2xlcmFuY2U9IjEwIiBpZD0ibmFtZWR2aWV3MTkxMDUiIGlua3NjYXBlOmN1cnJlbnQtbGF5ZXI9InN2ZzE5MTAzIiBpbmtzY2FwZTpjeD0iNzEuNDk1MjAzIiBpbmtzY2FwZTpjeT0iNTkuOTk4MjI2IiBpbmtzY2FwZTpwYWdlb3BhY2l0eT0iMCIgaW5rc2NhcGU6cGFnZXNoYWRvdz0iMiIgaW5rc2NhcGU6d2luZG93LWhlaWdodD0iMTAxNyIgaW5rc2NhcGU6d2luZG93LW1heGltaXplZD0iMSIgaW5rc2NhcGU6d2luZG93LXdpZHRoPSIxOTIwIiBpbmtzY2FwZTp3aW5kb3cteD0iLTgiIGlua3NjYXBlOndpbmRvdy15PSItOCIgaW5rc2NhcGU6em9vbT0iNy4xMDcxMzUyIiBvYmplY3R0b2xlcmFuY2U9IjEwIiBwYWdlY29sb3I9IiNmZmZmZmYiIHNob3dncmlkPSJmYWxzZSI+JiN4YTsJPC9zb2RpcG9kaTpuYW1lZHZpZXc+JiN4YTs8ZyBpZD0iZzE5MTAxIiB0cmFuc2Zvcm09InRyYW5zbGF0ZSgtMS41LC0xLjUwMDEwMTMpIj4mI3hhOwk8dGl0bGUgaWQ9InRpdGxlMTg5OTciPlBhZ2UtMTwvdGl0bGU+JiN4YTsJPGcgaWQ9Imdyb3VwNzgzOS0xIiB0cmFuc2Zvcm09InRyYW5zbGF0ZSgzLC0wLjc1MDAxMikiPiYjeGE7CQk8dGl0bGUgaWQ9InRpdGxlMTg5OTkiPldlYiBTZXJ2ZXIgIzM8L3RpdGxlPiYjeGE7CQk8ZyBpZD0ic2hhcGU3ODQwLTIiIHRyYW5zZm9ybT0idHJhbnNsYXRlKDAsLTI3Ljc0MjUpIj4mI3hhOwkJCTx0aXRsZSBpZD0idGl0bGUxOTAwMSI+Y2lyY2xlMjQ5MC4yMzgzPC90aXRsZT4mI3hhOwkJCTxjaXJjbGUgaWQ9ImVsbGlwc2UxOTAwMyIgc3R5bGU9ImZpbGw6bm9uZTtzdHJva2U6I0FBQjVDNTtzdHJva2Utd2lkdGg6MztzdHJva2UtbWl0ZXJsaW1pdDozOyIgY3g9IjMwIiBjeT0iNjEuNDkiIHI9IjMwIi8+JiN4YTsJCTwvZz4mI3hhOwkJPGcgaWQ9InNoYXBlNzg0MS00IiB0cmFuc2Zvcm09InRyYW5zbGF0ZSgxNy4yNSwtMjcuNzQyNSkiPiYjeGE7CQkJPHRpdGxlIGlkPSJ0aXRsZTE5MDA2Ij5lbGxpcHNlMjQ5Mi4yMzg0PC90aXRsZT4mI3hhOwkJCSYjeGE7CQkJCTxlbGxpcHNlIGlkPSJlbGxpcHNlMTkwMDgiIHN0eWxlPSJmaWxsOm5vbmU7c3Ryb2tlOiNBQUI1QzU7c3Ryb2tlLXdpZHRoOjM7c3Ryb2tlLW1pdGVybGltaXQ6MzsiIGN4PSIxMy4xMyIgY3k9IjYxLjQ5IiByeD0iMTMuMTMiIHJ5PSIzMCIvPiYjeGE7CQk8L2c+JiN4YTsJCTxnIGlkPSJzaGFwZTc4NDItNiIgdHJhbnNmb3JtPSJ0cmFuc2xhdGUoMy41NDc1LC03MS4yNDI1KSI+JiN4YTsJCQk8dGl0bGUgaWQ9InRpdGxlMTkwMTEiPnBhdGgyNDk0LjIzODU8L3RpdGxlPiYjeGE7CQkJPHBhdGggaWQ9InBhdGgxOTAxMyIgaW5rc2NhcGU6Y29ubmVjdG9yLWN1cnZhdHVyZT0iMCIgc3R5bGU9ImZpbGw6bm9uZTsiIGQ9Ik01Mi41LDg5LjI0Yy00LjY0LDEuMzMtMTQuNjMsMi4yNS0yNi4xOCwyLjI1ICAgICBjLTExLjY4LDAtMjEuNzUtMC45Mi0yNi4zMi0yLjI1SDUyLjV6Ii8+JiN4YTsJCQkmI3hhOwkJCQk8cGF0aCBpZD0icGF0aDE5MDE1IiBpbmtzY2FwZTpjb25uZWN0b3ItY3VydmF0dXJlPSIwIiBzdHlsZT0iZmlsbDpub25lO3N0cm9rZTojQUFCNUM1O3N0cm9rZS13aWR0aDozO3N0cm9rZS1taXRlcmxpbWl0OjM7IiBkPSIgICAgIE01Mi41LDg5LjI0Yy00LjY0LDEuMzMtMTQuNjMsMi4yNS0yNi4xOCwyLjI1Yy0xMS42OCwwLTIxLjc1LTAuOTItMjYuMzItMi4yNSIvPiYjeGE7CQk8L2c+JiN4YTsJCTxnIGlkPSJzaGFwZTc4NDMtOSIgdHJhbnNmb3JtPSJ0cmFuc2xhdGUoMy41NDc1LC00Mi40NDI1KSI+JiN4YTsJCQk8dGl0bGUgaWQ9InRpdGxlMTkwMTgiPnBhdGgyNDk2LjIzODY8L3RpdGxlPiYjeGE7CQkJPHBhdGggaWQ9InBhdGgxOTAyMCIgaW5rc2NhcGU6Y29ubmVjdG9yLWN1cnZhdHVyZT0iMCIgc3R5bGU9ImZpbGw6bm9uZTsiIGQ9Ik0wLDkxLjQ5YzQuMzUtMS4zMiwxNC41NC0yLjI1LDI2LjQxLTIuMjUgICAgIGMxMS41OCwwLDIxLjU3LDAuODksMjYuMDksMi4xNkwwLDkxLjQ5eiIvPiYjeGE7CQkJJiN4YTsJCQkJPHBhdGggaWQ9InBhdGgxOTAyMiIgaW5rc2NhcGU6Y29ubmVjdG9yLWN1cnZhdHVyZT0iMCIgc3R5bGU9ImZpbGw6bm9uZTtzdHJva2U6I0FBQjVDNTtzdHJva2Utd2lkdGg6MztzdHJva2UtbWl0ZXJsaW1pdDozOyIgZD0iICAgICBNMCw5MS40OWM0LjM1LTEuMzIsMTQuNTQtMi4yNSwyNi40MS0yLjI1YzExLjU4LDAsMjEuNTcsMC44OSwyNi4wOSwyLjE2Ii8+JiN4YTsJCTwvZz4mI3hhOwkJPGcgaWQ9InNoYXBlNzg0NC0xMiIgdHJhbnNmb3JtPSJ0cmFuc2xhdGUoMCwtNTcuNzQyNSkiPiYjeGE7CQkJPHRpdGxlIGlkPSJ0aXRsZTE5MDI1Ij5saW5lMjQ5OC4yMzg3PC90aXRsZT4mI3hhOwkJCSYjeGE7CQkJCTxwYXRoIGlkPSJwYXRoMTkwMjciIGlua3NjYXBlOmNvbm5lY3Rvci1jdXJ2YXR1cmU9IjAiIHN0eWxlPSJmaWxsOm5vbmU7c3Ryb2tlOiNBQUI1QzU7c3Ryb2tlLXdpZHRoOjM7c3Ryb2tlLW1pdGVybGltaXQ6MzsiIGQ9IiAgICAgTTAsOTEuNDloNjAuNzUiLz4mI3hhOwkJPC9nPiYjeGE7CQk8ZyBpZD0ic2hhcGU3ODQ1LTE1IiB0cmFuc2Zvcm09InRyYW5zbGF0ZSg0OC43NSwtOC45OTI1KSI+JiN4YTsJCQk8dGl0bGUgaWQ9InRpdGxlMTkwMzAiPnBvbHlnb24yNTA0LjIzODk8L3RpdGxlPiYjeGE7CQkJPHBhdGggaWQ9InBhdGgxOTAzMiIgaW5rc2NhcGU6Y29ubmVjdG9yLWN1cnZhdHVyZT0iMCIgc3R5bGU9ImZpbGw6IzU2NjE2RDsiIGQ9Ik0wLDYzLjc0aDAuNzV2LTIuMjVIMHYtMy43NWgwLjc1di0yLjI1SDB2LTMgICAgIGgwLjc1di0yLjI1SDB2LTMuNzVoMC43NXYtMi4yNUgwdi0zLjc1aDAuNzV2LTIuMjVIMHYtNy41aDM2Ljc1djYwLjc1SDBWNjMuNzR6Ii8+JiN4YTsJCTwvZz4mI3hhOwkJPGcgaWQ9InNoYXBlNzg0Ni0xNyIgdHJhbnNmb3JtPSJ0cmFuc2xhdGUoNzIsLTUzLjk5MjUpIj4mI3hhOwkJCTx0aXRsZSBpZD0idGl0bGUxOTAzNSI+cmVjdDI1MDYuMjM5MDwvdGl0bGU+JiN4YTsJCQk8cmVjdCBpZD0icmVjdDE5MDM3IiB5PSI4OS4yNCIgd2lkdGg9IjEzLjUiIGhlaWdodD0iMi4yNSIvPiYjeGE7CQk8L2c+JiN4YTsJCTxnIGlkPSJzaGFwZTc4NDctMTkiIHRyYW5zZm9ybT0idHJhbnNsYXRlKDcyLC00Ny45OTI1KSI+JiN4YTsJCQk8dGl0bGUgaWQ9InRpdGxlMTkwNDAiPnJlY3QyNTA4LjIzOTE8L3RpdGxlPiYjeGE7CQkJPHJlY3QgaWQ9InJlY3QxOTA0MiIgeT0iODkuMjQiIHdpZHRoPSIxMy41IiBoZWlnaHQ9IjIuMjUiLz4mI3hhOwkJPC9nPiYjeGE7CQk8ZyBpZD0ic2hhcGU3ODQ4LTIxIiB0cmFuc2Zvcm09InRyYW5zbGF0ZSg3MiwtNTkuOTkyNSkiPiYjeGE7CQkJPHRpdGxlIGlkPSJ0aXRsZTE5MDQ1Ij5yZWN0MjUxMC4yMzkyPC90aXRsZT4mI3hhOwkJCTxyZWN0IGlkPSJyZWN0MTkwNDciIHk9Ijg5LjI0IiB3aWR0aD0iMTMuNSIgaGVpZ2h0PSIyLjI1Ii8+JiN4YTsJCTwvZz4mI3hhOwkJPGcgaWQ9InNoYXBlNzg0OS0yMyIgdHJhbnNmb3JtPSJ0cmFuc2xhdGUoNDkuNSwtNTMuOTkyNSkiPiYjeGE7CQkJPHRpdGxlIGlkPSJ0aXRsZTE5MDUwIj5yZWN0MjUxMi4yMzkzPC90aXRsZT4mI3hhOwkJCTxyZWN0IGlkPSJyZWN0MTkwNTIiIHk9Ijg5LjI0IiBzdHlsZT0iZmlsbDojMzMzMzMzOyIgd2lkdGg9IjE2LjUiIGhlaWdodD0iMi4yNSIvPiYjeGE7CQk8L2c+JiN4YTsJCTxnIGlkPSJzaGFwZTc4NTAtMjUiIHRyYW5zZm9ybT0idHJhbnNsYXRlKDQ5LjUsLTQ3Ljk5MjUpIj4mI3hhOwkJCTx0aXRsZSBpZD0idGl0bGUxOTA1NSI+cmVjdDI1MTQuMjM5NDwvdGl0bGU+JiN4YTsJCQk8cmVjdCBpZD0icmVjdDE5MDU3IiB5PSI4OS4yNCIgc3R5bGU9ImZpbGw6IzMzMzMzMzsiIHdpZHRoPSIxNi41IiBoZWlnaHQ9IjIuMjUiLz4mI3hhOwkJPC9nPiYjeGE7CQk8ZyBpZD0ic2hhcGU3ODUxLTI3IiB0cmFuc2Zvcm09InRyYW5zbGF0ZSg0OS41LC01OS45OTI1KSI+JiN4YTsJCQk8dGl0bGUgaWQ9InRpdGxlMTkwNjAiPnJlY3QyNTE2LjIzOTU8L3RpdGxlPiYjeGE7CQkJPHJlY3QgaWQ9InJlY3QxOTA2MiIgeT0iODkuMjQiIHN0eWxlPSJmaWxsOiMzMzMzMzM7IiB3aWR0aD0iMTYuNSIgaGVpZ2h0PSIyLjI1Ii8+JiN4YTsJCTwvZz4mI3hhOwkJPGcgaWQ9InNoYXBlNzg1Mi0yOSIgdHJhbnNmb3JtPSJ0cmFuc2xhdGUoNzIsLTguOTkyNSkiPiYjeGE7CQkJPHRpdGxlIGlkPSJ0aXRsZTE5MDY1Ij5wb2x5Z29uMjUxOC4yMzk2PC90aXRsZT4mI3hhOwkJCTxwYXRoIGlkPSJwYXRoMTkwNjciIGlua3NjYXBlOmNvbm5lY3Rvci1jdXJ2YXR1cmU9IjAiIHN0eWxlPSJmaWxsOiM0NzRGNTk7IiBkPSJNMTEuMjUsMzguMjR2Mi4yNUgwdjMuNzVoMTEuMjV2Mi4yNUgwdjMuNzUgICAgIGgxMS4yNXYyLjI1SDB2MzloMTMuNVYzMC43NEgwdjcuNUwxMS4yNSwzOC4yNHoiLz4mI3hhOwkJPC9nPiYjeGE7CQk8ZyBpZD0ic2hhcGU3ODUzLTMxIiB0cmFuc2Zvcm09InRyYW5zbGF0ZSg0OS41LC01OS45OTI1KSI+JiN4YTsJCQk8dGl0bGUgaWQ9InRpdGxlMTkwNzAiPnBvbHlnb24yNTIwLjIzOTc8L3RpdGxlPiYjeGE7CQkJPHJlY3QgaWQ9InJlY3QxOTA3MiIgeT0iODkuMjQiIHN0eWxlPSJmaWxsOm5vbmU7IiB3aWR0aD0iMjQuNzUiIGhlaWdodD0iMi4yNSIvPiYjeGE7CQk8L2c+JiN4YTsJCTxnIGlkPSJzaGFwZTc4NTQtMzMiIHRyYW5zZm9ybT0idHJhbnNsYXRlKDQ5LjUsLTU5Ljk5MjUpIj4mI3hhOwkJCTx0aXRsZSBpZD0idGl0bGUxOTA3NSI+cG9seWxpbmUyNTIyLjIzOTg8L3RpdGxlPiYjeGE7CQkJPHJlY3QgaWQ9InJlY3QxOTA3NyIgeT0iODkuMjQiIHN0eWxlPSJmaWxsOm5vbmU7IiB3aWR0aD0iMjQuNzUiIGhlaWdodD0iMi4yNSIvPiYjeGE7CQk8L2c+JiN4YTsJCTxnIGlkPSJzaGFwZTc4NTUtMzUiIHRyYW5zZm9ybT0idHJhbnNsYXRlKDY2LC01OS45OTI1KSI+JiN4YTsJCQk8dGl0bGUgaWQ9InRpdGxlMTkwODAiPnBvbHlnb24yNTI0LjIzOTk8L3RpdGxlPiYjeGE7CQkJPHJlY3QgaWQ9InJlY3QxOTA4MiIgeT0iODkuMjQiIHN0eWxlPSJmaWxsOiM1NUE1RTQ7IiB3aWR0aD0iNiIgaGVpZ2h0PSIyLjI1Ii8+JiN4YTsJCTwvZz4mI3hhOwkJPGcgaWQ9InNoYXBlNzg1Ni0zNyIgdHJhbnNmb3JtPSJ0cmFuc2xhdGUoNjYsLTUzLjk5MjUpIj4mI3hhOwkJCTx0aXRsZSBpZD0idGl0bGUxOTA4NSI+cG9seWdvbjI1MjYuMjQwMDwvdGl0bGU+JiN4YTsJCQk8cmVjdCBpZD0icmVjdDE5MDg3IiB5PSI4OS4yNCIgc3R5bGU9ImZpbGw6IzU1QTVFNDsiIHdpZHRoPSI2IiBoZWlnaHQ9IjIuMjUiLz4mI3hhOwkJPC9nPiYjeGE7CQk8ZyBpZD0ic2hhcGU3ODU3LTM5IiB0cmFuc2Zvcm09InRyYW5zbGF0ZSg2NiwtNDcuOTkyNSkiPiYjeGE7CQkJPHRpdGxlIGlkPSJ0aXRsZTE5MDkwIj5wb2x5Z29uMjUyOC4yNDAxPC90aXRsZT4mI3hhOwkJCTxyZWN0IGlkPSJyZWN0MTkwOTIiIHk9Ijg5LjI0IiBzdHlsZT0iZmlsbDojNTVBNUU0OyIgd2lkdGg9IjYiIGhlaWdodD0iMi4yNSIvPiYjeGE7CQk8L2c+JiN4YTsJCTxnIGlkPSJzaGFwZTc4NTgtNDEiIHRyYW5zZm9ybT0idHJhbnNsYXRlKDc2LjQ5MjUpIj4mI3hhOwkJCTx0aXRsZSBpZD0idGl0bGUxOTA5NSI+cGF0aDI1MzAuMjQwMjwvdGl0bGU+JiN4YTsJCQk8cGF0aCBpZD0icGF0aDE5MDk3IiBpbmtzY2FwZTpjb25uZWN0b3ItY3VydmF0dXJlPSIwIiBzdHlsZT0iZmlsbDojOTI3M0I2OyIgZD0iTTI5LjUzLDc0LjY2bC0zLjU5LTAuMzkgICAgIGMtMC4yOC0wLjAzLTAuNTEtMC4yNC0wLjU2LTAuNTFjLTAuMjEtMC44OS0wLjUzLTEuNzQtMC45Ni0yLjU1Yy0wLjEyLTAuMjUtMC4wOC0wLjU0LDAuMDktMC43NWwyLjI1LTIuNzcgICAgIGMwLjIzLTAuMjgsMC4yMS0wLjY5LTAuMDUtMC45NGwtMS44Ny0xLjg3Yy0wLjI1LTAuMjUtMC42NS0wLjI3LTAuOTItMC4wNUwyMS4yMiw2N2MtMC4yMiwwLjE3LTAuNTEsMC4xOS0wLjc1LDAuMDYgICAgIGMtMC43NS0wLjQ1LTEuNTYtMC44MS0yLjQtMS4wNmMtMC4yNi0wLjA4LTAuNDUtMC4zMS0wLjQ4LTAuNThsLTAuMzktMy40NGMtMC4wNC0wLjM2LTAuMzQtMC40OC0wLjY5LTAuNDhoLTIuNjUgICAgIGMtMC4zNSwwLTAuNjUsMC4xMy0wLjY5LDAuNDhsLTAuMzgsMy40MmMtMC4wNCwwLjI4LTAuMjUsMC41MS0wLjUzLDAuNTZjLTAuOTMsMC4yNC0xLjgyLDAuNi0yLjY2LDEuMDggICAgIGMtMC4yNCwwLjEzLTAuNTMsMC4xMS0wLjc1LTAuMDZMNi4yLDY0LjgzYy0wLjI3LTAuMjItMC42Ny0wLjItMC45MiwwLjA0bC0xLjg5LDEuODhDMy4xNCw2NywzLjEyLDY3LjQsMy4zNCw2Ny42N2wyLjE3LDIuNzEgICAgIGMwLjE3LDAuMjIsMC4xOSwwLjUxLDAuMDYsMC43NWMtMC40NSwwLjgzLTAuNzksMS43MS0xLjAxLDIuNjJjLTAuMDcsMC4yOC0wLjMyLDAuNDktMC42MSwwLjUybC0zLjQzLDAuMzggICAgIEMwLjE5LDc0LjctMC4wNCw3NS4wMSwwLDc1LjM0TDAsNzhjLTAuMDQsMC4zMywwLjE5LDAuNjQsMC41MiwwLjY5bDMuNjksMC40MWMwLjI3LDAuMDMsMC40OSwwLjIyLDAuNTYsMC40NyAgICAgYzAuMjIsMC42OCwwLjUsMS4zNCwwLjg1LDEuOTdjMC4xMywwLjI0LDAuMSwwLjU0LTAuMDcsMC43NWwtMi4yMiwyLjc1Yy0wLjIyLDAuMjctMC4yLDAuNjcsMC4wNSwwLjkybDEuODcsMS44NyAgICAgYzAuMjUsMC4yNSwwLjY1LDAuMjcsMC45MiwwLjA1bDIuNzMtMi4xOWMwLjIzLTAuMTgsMC41NC0wLjIsMC43OS0wLjA1YzAuNzIsMC40MSwxLjQ5LDAuNzMsMi4yOCwwLjk2ICAgICBjMC4yOCwwLjA3LDAuNDgsMC4zMSwwLjUxLDAuNTlsMC40LDMuNjljMC4wNCwwLjM1LDAuMzQsMC42MiwwLjY5LDAuNjFsMi42NSwwYzAuMzUsMCwwLjY1LTAuMjYsMC42OS0wLjYxbDAuMzktMy42NCAgICAgYzAuMDMtMC4yOCwwLjIzLTAuNTEsMC41LTAuNThjMC44OS0wLjI0LDEuNzUtMC42LDIuNTUtMS4wNmMwLjI0LTAuMTMsMC41NC0wLjEsMC43NSwwLjA3bDIuNzcsMi4yNSAgICAgYzAuMjgsMC4yMiwwLjY3LDAuMiwwLjkyLTAuMDVsMS44Ny0xLjg3YzAuMjUtMC4yNSwwLjI3LTAuNjUsMC4wNS0wLjkybC0yLjI0LTIuODNjLTAuMTYtMC4yMi0wLjE5LTAuNTEtMC4wNi0wLjc1ICAgICBjMC4zMi0wLjU5LDAuNTgtMS4yMSwwLjc4LTEuODVjMC4wOC0wLjI2LDAuMzEtMC40NiwwLjU4LTAuNDlsMy43Ni0wLjQxQzI5Ljg3LDc4LjcsMzAsNzguNCwzMCw3OC4wNVY3NS40ICAgICBDMzAuMDEsNzUsMjkuODgsNzQuNywyOS41Myw3NC42NnogTTE1LjAxLDgxLjg2Yy0zLjA0LDAtNS41MS0yLjQ2LTUuNTEtNS41YzAtMy4wNCwyLjQ2LTUuNTEsNS41LTUuNTFzNS41MSwyLjQ2LDUuNTEsNS41ICAgICBjMCwwLDAsMC4wMSwwLDAuMDFDMjAuNTEsNzkuNCwxOC4wNSw4MS44NiwxNS4wMSw4MS44NnoiLz4mI3hhOwkJPC9nPiYjeGE7CTwvZz4mI3hhOzwvZz4mI3hhOzwvc3ZnPg==;" vertex="1" parent="1">
          <mxGeometry x="30" y="170" width="108" height="89" as="geometry" />
        </mxCell>
        <mxCell id="cizuM7O_poYgmAaUD8hP-3" value="Web-2+ DVWA" style="shape=image;verticalLabelPosition=bottom;labelBackgroundColor=#ffffff;verticalAlign=top;aspect=fixed;imageAspect=0;image=data:image/svg+xml,PHN2ZyB4bWxuczpjYz0iaHR0cDovL2NyZWF0aXZlY29tbW9ucy5vcmcvbnMjIiB4bWxuczpkYz0iaHR0cDovL3B1cmwub3JnL2RjL2VsZW1lbnRzLzEuMS8iIHhtbG5zOmlua3NjYXBlPSJodHRwOi8vd3d3Lmlua3NjYXBlLm9yZy9uYW1lc3BhY2VzL2lua3NjYXBlIiB4bWxuczpyZGY9Imh0dHA6Ly93d3cudzMub3JnLzE5OTkvMDIvMjItcmRmLXN5bnRheC1ucyMiIHhtbG5zOnNvZGlwb2RpPSJodHRwOi8vc29kaXBvZGkuc291cmNlZm9yZ2UubmV0L0RURC9zb2RpcG9kaS0wLmR0ZCIgeG1sbnM6c3ZnPSJodHRwOi8vd3d3LnczLm9yZy8yMDAwL3N2ZyIgeG1sbnM9Imh0dHA6Ly93d3cudzMub3JnLzIwMDAvc3ZnIiB4bWxuczp4bGluaz0iaHR0cDovL3d3dy53My5vcmcvMTk5OS94bGluayIgdmVyc2lvbj0iMS4xIiBpZD0ic3ZnMTkxMDMiIGlua3NjYXBlOnZlcnNpb249IjAuOTIuMyAoMjQwNTU0NiwgMjAxOC0wMy0xMSkiIHNvZGlwb2RpOmRvY25hbWU9IndlYl9zZXJ2ZXJfMy5zdmciIHg9IjBweCIgeT0iMHB4IiB2aWV3Qm94PSIwIDAgMTA3Ljk5IDg5LjI0IiBzdHlsZT0iZW5hYmxlLWJhY2tncm91bmQ6bmV3IDAgMCAxMDcuOTkgODkuMjQ7IiB4bWw6c3BhY2U9InByZXNlcnZlIj4mI3hhOzxzb2RpcG9kaTpuYW1lZHZpZXcgYm9yZGVyY29sb3I9IiM2NjY2NjYiIGJvcmRlcm9wYWNpdHk9IjEiIGZpdC1tYXJnaW4tYm90dG9tPSIwIiBmaXQtbWFyZ2luLWxlZnQ9IjAiIGZpdC1tYXJnaW4tcmlnaHQ9IjAiIGZpdC1tYXJnaW4tdG9wPSIwIiBncmlkdG9sZXJhbmNlPSIxMCIgZ3VpZGV0b2xlcmFuY2U9IjEwIiBpZD0ibmFtZWR2aWV3MTkxMDUiIGlua3NjYXBlOmN1cnJlbnQtbGF5ZXI9InN2ZzE5MTAzIiBpbmtzY2FwZTpjeD0iNzEuNDk1MjAzIiBpbmtzY2FwZTpjeT0iNTkuOTk4MjI2IiBpbmtzY2FwZTpwYWdlb3BhY2l0eT0iMCIgaW5rc2NhcGU6cGFnZXNoYWRvdz0iMiIgaW5rc2NhcGU6d2luZG93LWhlaWdodD0iMTAxNyIgaW5rc2NhcGU6d2luZG93LW1heGltaXplZD0iMSIgaW5rc2NhcGU6d2luZG93LXdpZHRoPSIxOTIwIiBpbmtzY2FwZTp3aW5kb3cteD0iLTgiIGlua3NjYXBlOndpbmRvdy15PSItOCIgaW5rc2NhcGU6em9vbT0iNy4xMDcxMzUyIiBvYmplY3R0b2xlcmFuY2U9IjEwIiBwYWdlY29sb3I9IiNmZmZmZmYiIHNob3dncmlkPSJmYWxzZSI+JiN4YTsJPC9zb2RpcG9kaTpuYW1lZHZpZXc+JiN4YTs8ZyBpZD0iZzE5MTAxIiB0cmFuc2Zvcm09InRyYW5zbGF0ZSgtMS41LC0xLjUwMDEwMTMpIj4mI3hhOwk8dGl0bGUgaWQ9InRpdGxlMTg5OTciPlBhZ2UtMTwvdGl0bGU+JiN4YTsJPGcgaWQ9Imdyb3VwNzgzOS0xIiB0cmFuc2Zvcm09InRyYW5zbGF0ZSgzLC0wLjc1MDAxMikiPiYjeGE7CQk8dGl0bGUgaWQ9InRpdGxlMTg5OTkiPldlYiBTZXJ2ZXIgIzM8L3RpdGxlPiYjeGE7CQk8ZyBpZD0ic2hhcGU3ODQwLTIiIHRyYW5zZm9ybT0idHJhbnNsYXRlKDAsLTI3Ljc0MjUpIj4mI3hhOwkJCTx0aXRsZSBpZD0idGl0bGUxOTAwMSI+Y2lyY2xlMjQ5MC4yMzgzPC90aXRsZT4mI3hhOwkJCTxjaXJjbGUgaWQ9ImVsbGlwc2UxOTAwMyIgc3R5bGU9ImZpbGw6bm9uZTtzdHJva2U6I0FBQjVDNTtzdHJva2Utd2lkdGg6MztzdHJva2UtbWl0ZXJsaW1pdDozOyIgY3g9IjMwIiBjeT0iNjEuNDkiIHI9IjMwIi8+JiN4YTsJCTwvZz4mI3hhOwkJPGcgaWQ9InNoYXBlNzg0MS00IiB0cmFuc2Zvcm09InRyYW5zbGF0ZSgxNy4yNSwtMjcuNzQyNSkiPiYjeGE7CQkJPHRpdGxlIGlkPSJ0aXRsZTE5MDA2Ij5lbGxpcHNlMjQ5Mi4yMzg0PC90aXRsZT4mI3hhOwkJCSYjeGE7CQkJCTxlbGxpcHNlIGlkPSJlbGxpcHNlMTkwMDgiIHN0eWxlPSJmaWxsOm5vbmU7c3Ryb2tlOiNBQUI1QzU7c3Ryb2tlLXdpZHRoOjM7c3Ryb2tlLW1pdGVybGltaXQ6MzsiIGN4PSIxMy4xMyIgY3k9IjYxLjQ5IiByeD0iMTMuMTMiIHJ5PSIzMCIvPiYjeGE7CQk8L2c+JiN4YTsJCTxnIGlkPSJzaGFwZTc4NDItNiIgdHJhbnNmb3JtPSJ0cmFuc2xhdGUoMy41NDc1LC03MS4yNDI1KSI+JiN4YTsJCQk8dGl0bGUgaWQ9InRpdGxlMTkwMTEiPnBhdGgyNDk0LjIzODU8L3RpdGxlPiYjeGE7CQkJPHBhdGggaWQ9InBhdGgxOTAxMyIgaW5rc2NhcGU6Y29ubmVjdG9yLWN1cnZhdHVyZT0iMCIgc3R5bGU9ImZpbGw6bm9uZTsiIGQ9Ik01Mi41LDg5LjI0Yy00LjY0LDEuMzMtMTQuNjMsMi4yNS0yNi4xOCwyLjI1ICAgICBjLTExLjY4LDAtMjEuNzUtMC45Mi0yNi4zMi0yLjI1SDUyLjV6Ii8+JiN4YTsJCQkmI3hhOwkJCQk8cGF0aCBpZD0icGF0aDE5MDE1IiBpbmtzY2FwZTpjb25uZWN0b3ItY3VydmF0dXJlPSIwIiBzdHlsZT0iZmlsbDpub25lO3N0cm9rZTojQUFCNUM1O3N0cm9rZS13aWR0aDozO3N0cm9rZS1taXRlcmxpbWl0OjM7IiBkPSIgICAgIE01Mi41LDg5LjI0Yy00LjY0LDEuMzMtMTQuNjMsMi4yNS0yNi4xOCwyLjI1Yy0xMS42OCwwLTIxLjc1LTAuOTItMjYuMzItMi4yNSIvPiYjeGE7CQk8L2c+JiN4YTsJCTxnIGlkPSJzaGFwZTc4NDMtOSIgdHJhbnNmb3JtPSJ0cmFuc2xhdGUoMy41NDc1LC00Mi40NDI1KSI+JiN4YTsJCQk8dGl0bGUgaWQ9InRpdGxlMTkwMTgiPnBhdGgyNDk2LjIzODY8L3RpdGxlPiYjeGE7CQkJPHBhdGggaWQ9InBhdGgxOTAyMCIgaW5rc2NhcGU6Y29ubmVjdG9yLWN1cnZhdHVyZT0iMCIgc3R5bGU9ImZpbGw6bm9uZTsiIGQ9Ik0wLDkxLjQ5YzQuMzUtMS4zMiwxNC41NC0yLjI1LDI2LjQxLTIuMjUgICAgIGMxMS41OCwwLDIxLjU3LDAuODksMjYuMDksMi4xNkwwLDkxLjQ5eiIvPiYjeGE7CQkJJiN4YTsJCQkJPHBhdGggaWQ9InBhdGgxOTAyMiIgaW5rc2NhcGU6Y29ubmVjdG9yLWN1cnZhdHVyZT0iMCIgc3R5bGU9ImZpbGw6bm9uZTtzdHJva2U6I0FBQjVDNTtzdHJva2Utd2lkdGg6MztzdHJva2UtbWl0ZXJsaW1pdDozOyIgZD0iICAgICBNMCw5MS40OWM0LjM1LTEuMzIsMTQuNTQtMi4yNSwyNi40MS0yLjI1YzExLjU4LDAsMjEuNTcsMC44OSwyNi4wOSwyLjE2Ii8+JiN4YTsJCTwvZz4mI3hhOwkJPGcgaWQ9InNoYXBlNzg0NC0xMiIgdHJhbnNmb3JtPSJ0cmFuc2xhdGUoMCwtNTcuNzQyNSkiPiYjeGE7CQkJPHRpdGxlIGlkPSJ0aXRsZTE5MDI1Ij5saW5lMjQ5OC4yMzg3PC90aXRsZT4mI3hhOwkJCSYjeGE7CQkJCTxwYXRoIGlkPSJwYXRoMTkwMjciIGlua3NjYXBlOmNvbm5lY3Rvci1jdXJ2YXR1cmU9IjAiIHN0eWxlPSJmaWxsOm5vbmU7c3Ryb2tlOiNBQUI1QzU7c3Ryb2tlLXdpZHRoOjM7c3Ryb2tlLW1pdGVybGltaXQ6MzsiIGQ9IiAgICAgTTAsOTEuNDloNjAuNzUiLz4mI3hhOwkJPC9nPiYjeGE7CQk8ZyBpZD0ic2hhcGU3ODQ1LTE1IiB0cmFuc2Zvcm09InRyYW5zbGF0ZSg0OC43NSwtOC45OTI1KSI+JiN4YTsJCQk8dGl0bGUgaWQ9InRpdGxlMTkwMzAiPnBvbHlnb24yNTA0LjIzODk8L3RpdGxlPiYjeGE7CQkJPHBhdGggaWQ9InBhdGgxOTAzMiIgaW5rc2NhcGU6Y29ubmVjdG9yLWN1cnZhdHVyZT0iMCIgc3R5bGU9ImZpbGw6IzU2NjE2RDsiIGQ9Ik0wLDYzLjc0aDAuNzV2LTIuMjVIMHYtMy43NWgwLjc1di0yLjI1SDB2LTMgICAgIGgwLjc1di0yLjI1SDB2LTMuNzVoMC43NXYtMi4yNUgwdi0zLjc1aDAuNzV2LTIuMjVIMHYtNy41aDM2Ljc1djYwLjc1SDBWNjMuNzR6Ii8+JiN4YTsJCTwvZz4mI3hhOwkJPGcgaWQ9InNoYXBlNzg0Ni0xNyIgdHJhbnNmb3JtPSJ0cmFuc2xhdGUoNzIsLTUzLjk5MjUpIj4mI3hhOwkJCTx0aXRsZSBpZD0idGl0bGUxOTAzNSI+cmVjdDI1MDYuMjM5MDwvdGl0bGU+JiN4YTsJCQk8cmVjdCBpZD0icmVjdDE5MDM3IiB5PSI4OS4yNCIgd2lkdGg9IjEzLjUiIGhlaWdodD0iMi4yNSIvPiYjeGE7CQk8L2c+JiN4YTsJCTxnIGlkPSJzaGFwZTc4NDctMTkiIHRyYW5zZm9ybT0idHJhbnNsYXRlKDcyLC00Ny45OTI1KSI+JiN4YTsJCQk8dGl0bGUgaWQ9InRpdGxlMTkwNDAiPnJlY3QyNTA4LjIzOTE8L3RpdGxlPiYjeGE7CQkJPHJlY3QgaWQ9InJlY3QxOTA0MiIgeT0iODkuMjQiIHdpZHRoPSIxMy41IiBoZWlnaHQ9IjIuMjUiLz4mI3hhOwkJPC9nPiYjeGE7CQk8ZyBpZD0ic2hhcGU3ODQ4LTIxIiB0cmFuc2Zvcm09InRyYW5zbGF0ZSg3MiwtNTkuOTkyNSkiPiYjeGE7CQkJPHRpdGxlIGlkPSJ0aXRsZTE5MDQ1Ij5yZWN0MjUxMC4yMzkyPC90aXRsZT4mI3hhOwkJCTxyZWN0IGlkPSJyZWN0MTkwNDciIHk9Ijg5LjI0IiB3aWR0aD0iMTMuNSIgaGVpZ2h0PSIyLjI1Ii8+JiN4YTsJCTwvZz4mI3hhOwkJPGcgaWQ9InNoYXBlNzg0OS0yMyIgdHJhbnNmb3JtPSJ0cmFuc2xhdGUoNDkuNSwtNTMuOTkyNSkiPiYjeGE7CQkJPHRpdGxlIGlkPSJ0aXRsZTE5MDUwIj5yZWN0MjUxMi4yMzkzPC90aXRsZT4mI3hhOwkJCTxyZWN0IGlkPSJyZWN0MTkwNTIiIHk9Ijg5LjI0IiBzdHlsZT0iZmlsbDojMzMzMzMzOyIgd2lkdGg9IjE2LjUiIGhlaWdodD0iMi4yNSIvPiYjeGE7CQk8L2c+JiN4YTsJCTxnIGlkPSJzaGFwZTc4NTAtMjUiIHRyYW5zZm9ybT0idHJhbnNsYXRlKDQ5LjUsLTQ3Ljk5MjUpIj4mI3hhOwkJCTx0aXRsZSBpZD0idGl0bGUxOTA1NSI+cmVjdDI1MTQuMjM5NDwvdGl0bGU+JiN4YTsJCQk8cmVjdCBpZD0icmVjdDE5MDU3IiB5PSI4OS4yNCIgc3R5bGU9ImZpbGw6IzMzMzMzMzsiIHdpZHRoPSIxNi41IiBoZWlnaHQ9IjIuMjUiLz4mI3hhOwkJPC9nPiYjeGE7CQk8ZyBpZD0ic2hhcGU3ODUxLTI3IiB0cmFuc2Zvcm09InRyYW5zbGF0ZSg0OS41LC01OS45OTI1KSI+JiN4YTsJCQk8dGl0bGUgaWQ9InRpdGxlMTkwNjAiPnJlY3QyNTE2LjIzOTU8L3RpdGxlPiYjeGE7CQkJPHJlY3QgaWQ9InJlY3QxOTA2MiIgeT0iODkuMjQiIHN0eWxlPSJmaWxsOiMzMzMzMzM7IiB3aWR0aD0iMTYuNSIgaGVpZ2h0PSIyLjI1Ii8+JiN4YTsJCTwvZz4mI3hhOwkJPGcgaWQ9InNoYXBlNzg1Mi0yOSIgdHJhbnNmb3JtPSJ0cmFuc2xhdGUoNzIsLTguOTkyNSkiPiYjeGE7CQkJPHRpdGxlIGlkPSJ0aXRsZTE5MDY1Ij5wb2x5Z29uMjUxOC4yMzk2PC90aXRsZT4mI3hhOwkJCTxwYXRoIGlkPSJwYXRoMTkwNjciIGlua3NjYXBlOmNvbm5lY3Rvci1jdXJ2YXR1cmU9IjAiIHN0eWxlPSJmaWxsOiM0NzRGNTk7IiBkPSJNMTEuMjUsMzguMjR2Mi4yNUgwdjMuNzVoMTEuMjV2Mi4yNUgwdjMuNzUgICAgIGgxMS4yNXYyLjI1SDB2MzloMTMuNVYzMC43NEgwdjcuNUwxMS4yNSwzOC4yNHoiLz4mI3hhOwkJPC9nPiYjeGE7CQk8ZyBpZD0ic2hhcGU3ODUzLTMxIiB0cmFuc2Zvcm09InRyYW5zbGF0ZSg0OS41LC01OS45OTI1KSI+JiN4YTsJCQk8dGl0bGUgaWQ9InRpdGxlMTkwNzAiPnBvbHlnb24yNTIwLjIzOTc8L3RpdGxlPiYjeGE7CQkJPHJlY3QgaWQ9InJlY3QxOTA3MiIgeT0iODkuMjQiIHN0eWxlPSJmaWxsOm5vbmU7IiB3aWR0aD0iMjQuNzUiIGhlaWdodD0iMi4yNSIvPiYjeGE7CQk8L2c+JiN4YTsJCTxnIGlkPSJzaGFwZTc4NTQtMzMiIHRyYW5zZm9ybT0idHJhbnNsYXRlKDQ5LjUsLTU5Ljk5MjUpIj4mI3hhOwkJCTx0aXRsZSBpZD0idGl0bGUxOTA3NSI+cG9seWxpbmUyNTIyLjIzOTg8L3RpdGxlPiYjeGE7CQkJPHJlY3QgaWQ9InJlY3QxOTA3NyIgeT0iODkuMjQiIHN0eWxlPSJmaWxsOm5vbmU7IiB3aWR0aD0iMjQuNzUiIGhlaWdodD0iMi4yNSIvPiYjeGE7CQk8L2c+JiN4YTsJCTxnIGlkPSJzaGFwZTc4NTUtMzUiIHRyYW5zZm9ybT0idHJhbnNsYXRlKDY2LC01OS45OTI1KSI+JiN4YTsJCQk8dGl0bGUgaWQ9InRpdGxlMTkwODAiPnBvbHlnb24yNTI0LjIzOTk8L3RpdGxlPiYjeGE7CQkJPHJlY3QgaWQ9InJlY3QxOTA4MiIgeT0iODkuMjQiIHN0eWxlPSJmaWxsOiM1NUE1RTQ7IiB3aWR0aD0iNiIgaGVpZ2h0PSIyLjI1Ii8+JiN4YTsJCTwvZz4mI3hhOwkJPGcgaWQ9InNoYXBlNzg1Ni0zNyIgdHJhbnNmb3JtPSJ0cmFuc2xhdGUoNjYsLTUzLjk5MjUpIj4mI3hhOwkJCTx0aXRsZSBpZD0idGl0bGUxOTA4NSI+cG9seWdvbjI1MjYuMjQwMDwvdGl0bGU+JiN4YTsJCQk8cmVjdCBpZD0icmVjdDE5MDg3IiB5PSI4OS4yNCIgc3R5bGU9ImZpbGw6IzU1QTVFNDsiIHdpZHRoPSI2IiBoZWlnaHQ9IjIuMjUiLz4mI3hhOwkJPC9nPiYjeGE7CQk8ZyBpZD0ic2hhcGU3ODU3LTM5IiB0cmFuc2Zvcm09InRyYW5zbGF0ZSg2NiwtNDcuOTkyNSkiPiYjeGE7CQkJPHRpdGxlIGlkPSJ0aXRsZTE5MDkwIj5wb2x5Z29uMjUyOC4yNDAxPC90aXRsZT4mI3hhOwkJCTxyZWN0IGlkPSJyZWN0MTkwOTIiIHk9Ijg5LjI0IiBzdHlsZT0iZmlsbDojNTVBNUU0OyIgd2lkdGg9IjYiIGhlaWdodD0iMi4yNSIvPiYjeGE7CQk8L2c+JiN4YTsJCTxnIGlkPSJzaGFwZTc4NTgtNDEiIHRyYW5zZm9ybT0idHJhbnNsYXRlKDc2LjQ5MjUpIj4mI3hhOwkJCTx0aXRsZSBpZD0idGl0bGUxOTA5NSI+cGF0aDI1MzAuMjQwMjwvdGl0bGU+JiN4YTsJCQk8cGF0aCBpZD0icGF0aDE5MDk3IiBpbmtzY2FwZTpjb25uZWN0b3ItY3VydmF0dXJlPSIwIiBzdHlsZT0iZmlsbDojOTI3M0I2OyIgZD0iTTI5LjUzLDc0LjY2bC0zLjU5LTAuMzkgICAgIGMtMC4yOC0wLjAzLTAuNTEtMC4yNC0wLjU2LTAuNTFjLTAuMjEtMC44OS0wLjUzLTEuNzQtMC45Ni0yLjU1Yy0wLjEyLTAuMjUtMC4wOC0wLjU0LDAuMDktMC43NWwyLjI1LTIuNzcgICAgIGMwLjIzLTAuMjgsMC4yMS0wLjY5LTAuMDUtMC45NGwtMS44Ny0xLjg3Yy0wLjI1LTAuMjUtMC42NS0wLjI3LTAuOTItMC4wNUwyMS4yMiw2N2MtMC4yMiwwLjE3LTAuNTEsMC4xOS0wLjc1LDAuMDYgICAgIGMtMC43NS0wLjQ1LTEuNTYtMC44MS0yLjQtMS4wNmMtMC4yNi0wLjA4LTAuNDUtMC4zMS0wLjQ4LTAuNThsLTAuMzktMy40NGMtMC4wNC0wLjM2LTAuMzQtMC40OC0wLjY5LTAuNDhoLTIuNjUgICAgIGMtMC4zNSwwLTAuNjUsMC4xMy0wLjY5LDAuNDhsLTAuMzgsMy40MmMtMC4wNCwwLjI4LTAuMjUsMC41MS0wLjUzLDAuNTZjLTAuOTMsMC4yNC0xLjgyLDAuNi0yLjY2LDEuMDggICAgIGMtMC4yNCwwLjEzLTAuNTMsMC4xMS0wLjc1LTAuMDZMNi4yLDY0LjgzYy0wLjI3LTAuMjItMC42Ny0wLjItMC45MiwwLjA0bC0xLjg5LDEuODhDMy4xNCw2NywzLjEyLDY3LjQsMy4zNCw2Ny42N2wyLjE3LDIuNzEgICAgIGMwLjE3LDAuMjIsMC4xOSwwLjUxLDAuMDYsMC43NWMtMC40NSwwLjgzLTAuNzksMS43MS0xLjAxLDIuNjJjLTAuMDcsMC4yOC0wLjMyLDAuNDktMC42MSwwLjUybC0zLjQzLDAuMzggICAgIEMwLjE5LDc0LjctMC4wNCw3NS4wMSwwLDc1LjM0TDAsNzhjLTAuMDQsMC4zMywwLjE5LDAuNjQsMC41MiwwLjY5bDMuNjksMC40MWMwLjI3LDAuMDMsMC40OSwwLjIyLDAuNTYsMC40NyAgICAgYzAuMjIsMC42OCwwLjUsMS4zNCwwLjg1LDEuOTdjMC4xMywwLjI0LDAuMSwwLjU0LTAuMDcsMC43NWwtMi4yMiwyLjc1Yy0wLjIyLDAuMjctMC4yLDAuNjcsMC4wNSwwLjkybDEuODcsMS44NyAgICAgYzAuMjUsMC4yNSwwLjY1LDAuMjcsMC45MiwwLjA1bDIuNzMtMi4xOWMwLjIzLTAuMTgsMC41NC0wLjIsMC43OS0wLjA1YzAuNzIsMC40MSwxLjQ5LDAuNzMsMi4yOCwwLjk2ICAgICBjMC4yOCwwLjA3LDAuNDgsMC4zMSwwLjUxLDAuNTlsMC40LDMuNjljMC4wNCwwLjM1LDAuMzQsMC42MiwwLjY5LDAuNjFsMi42NSwwYzAuMzUsMCwwLjY1LTAuMjYsMC42OS0wLjYxbDAuMzktMy42NCAgICAgYzAuMDMtMC4yOCwwLjIzLTAuNTEsMC41LTAuNThjMC44OS0wLjI0LDEuNzUtMC42LDIuNTUtMS4wNmMwLjI0LTAuMTMsMC41NC0wLjEsMC43NSwwLjA3bDIuNzcsMi4yNSAgICAgYzAuMjgsMC4yMiwwLjY3LDAuMiwwLjkyLTAuMDVsMS44Ny0xLjg3YzAuMjUtMC4yNSwwLjI3LTAuNjUsMC4wNS0wLjkybC0yLjI0LTIuODNjLTAuMTYtMC4yMi0wLjE5LTAuNTEtMC4wNi0wLjc1ICAgICBjMC4zMi0wLjU5LDAuNTgtMS4yMSwwLjc4LTEuODVjMC4wOC0wLjI2LDAuMzEtMC40NiwwLjU4LTAuNDlsMy43Ni0wLjQxQzI5Ljg3LDc4LjcsMzAsNzguNCwzMCw3OC4wNVY3NS40ICAgICBDMzAuMDEsNzUsMjkuODgsNzQuNywyOS41Myw3NC42NnogTTE1LjAxLDgxLjg2Yy0zLjA0LDAtNS41MS0yLjQ2LTUuNTEtNS41YzAtMy4wNCwyLjQ2LTUuNTEsNS41LTUuNTFzNS41MSwyLjQ2LDUuNTEsNS41ICAgICBjMCwwLDAsMC4wMSwwLDAuMDFDMjAuNTEsNzkuNCwxOC4wNSw4MS44NiwxNS4wMSw4MS44NnoiLz4mI3hhOwkJPC9nPiYjeGE7CTwvZz4mI3hhOzwvZz4mI3hhOzwvc3ZnPg==;" vertex="1" parent="1">
          <mxGeometry x="160" y="170" width="108" height="89" as="geometry" />
        </mxCell>
        <mxCell id="cizuM7O_poYgmAaUD8hP-4" value="Web-3+ DVWA" style="shape=image;verticalLabelPosition=bottom;labelBackgroundColor=#ffffff;verticalAlign=top;aspect=fixed;imageAspect=0;image=data:image/svg+xml,PHN2ZyB4bWxuczpjYz0iaHR0cDovL2NyZWF0aXZlY29tbW9ucy5vcmcvbnMjIiB4bWxuczpkYz0iaHR0cDovL3B1cmwub3JnL2RjL2VsZW1lbnRzLzEuMS8iIHhtbG5zOmlua3NjYXBlPSJodHRwOi8vd3d3Lmlua3NjYXBlLm9yZy9uYW1lc3BhY2VzL2lua3NjYXBlIiB4bWxuczpyZGY9Imh0dHA6Ly93d3cudzMub3JnLzE5OTkvMDIvMjItcmRmLXN5bnRheC1ucyMiIHhtbG5zOnNvZGlwb2RpPSJodHRwOi8vc29kaXBvZGkuc291cmNlZm9yZ2UubmV0L0RURC9zb2RpcG9kaS0wLmR0ZCIgeG1sbnM6c3ZnPSJodHRwOi8vd3d3LnczLm9yZy8yMDAwL3N2ZyIgeG1sbnM9Imh0dHA6Ly93d3cudzMub3JnLzIwMDAvc3ZnIiB4bWxuczp4bGluaz0iaHR0cDovL3d3dy53My5vcmcvMTk5OS94bGluayIgdmVyc2lvbj0iMS4xIiBpZD0ic3ZnMTkxMDMiIGlua3NjYXBlOnZlcnNpb249IjAuOTIuMyAoMjQwNTU0NiwgMjAxOC0wMy0xMSkiIHNvZGlwb2RpOmRvY25hbWU9IndlYl9zZXJ2ZXJfMy5zdmciIHg9IjBweCIgeT0iMHB4IiB2aWV3Qm94PSIwIDAgMTA3Ljk5IDg5LjI0IiBzdHlsZT0iZW5hYmxlLWJhY2tncm91bmQ6bmV3IDAgMCAxMDcuOTkgODkuMjQ7IiB4bWw6c3BhY2U9InByZXNlcnZlIj4mI3hhOzxzb2RpcG9kaTpuYW1lZHZpZXcgYm9yZGVyY29sb3I9IiM2NjY2NjYiIGJvcmRlcm9wYWNpdHk9IjEiIGZpdC1tYXJnaW4tYm90dG9tPSIwIiBmaXQtbWFyZ2luLWxlZnQ9IjAiIGZpdC1tYXJnaW4tcmlnaHQ9IjAiIGZpdC1tYXJnaW4tdG9wPSIwIiBncmlkdG9sZXJhbmNlPSIxMCIgZ3VpZGV0b2xlcmFuY2U9IjEwIiBpZD0ibmFtZWR2aWV3MTkxMDUiIGlua3NjYXBlOmN1cnJlbnQtbGF5ZXI9InN2ZzE5MTAzIiBpbmtzY2FwZTpjeD0iNzEuNDk1MjAzIiBpbmtzY2FwZTpjeT0iNTkuOTk4MjI2IiBpbmtzY2FwZTpwYWdlb3BhY2l0eT0iMCIgaW5rc2NhcGU6cGFnZXNoYWRvdz0iMiIgaW5rc2NhcGU6d2luZG93LWhlaWdodD0iMTAxNyIgaW5rc2NhcGU6d2luZG93LW1heGltaXplZD0iMSIgaW5rc2NhcGU6d2luZG93LXdpZHRoPSIxOTIwIiBpbmtzY2FwZTp3aW5kb3cteD0iLTgiIGlua3NjYXBlOndpbmRvdy15PSItOCIgaW5rc2NhcGU6em9vbT0iNy4xMDcxMzUyIiBvYmplY3R0b2xlcmFuY2U9IjEwIiBwYWdlY29sb3I9IiNmZmZmZmYiIHNob3dncmlkPSJmYWxzZSI+JiN4YTsJPC9zb2RpcG9kaTpuYW1lZHZpZXc+JiN4YTs8ZyBpZD0iZzE5MTAxIiB0cmFuc2Zvcm09InRyYW5zbGF0ZSgtMS41LC0xLjUwMDEwMTMpIj4mI3hhOwk8dGl0bGUgaWQ9InRpdGxlMTg5OTciPlBhZ2UtMTwvdGl0bGU+JiN4YTsJPGcgaWQ9Imdyb3VwNzgzOS0xIiB0cmFuc2Zvcm09InRyYW5zbGF0ZSgzLC0wLjc1MDAxMikiPiYjeGE7CQk8dGl0bGUgaWQ9InRpdGxlMTg5OTkiPldlYiBTZXJ2ZXIgIzM8L3RpdGxlPiYjeGE7CQk8ZyBpZD0ic2hhcGU3ODQwLTIiIHRyYW5zZm9ybT0idHJhbnNsYXRlKDAsLTI3Ljc0MjUpIj4mI3hhOwkJCTx0aXRsZSBpZD0idGl0bGUxOTAwMSI+Y2lyY2xlMjQ5MC4yMzgzPC90aXRsZT4mI3hhOwkJCTxjaXJjbGUgaWQ9ImVsbGlwc2UxOTAwMyIgc3R5bGU9ImZpbGw6bm9uZTtzdHJva2U6I0FBQjVDNTtzdHJva2Utd2lkdGg6MztzdHJva2UtbWl0ZXJsaW1pdDozOyIgY3g9IjMwIiBjeT0iNjEuNDkiIHI9IjMwIi8+JiN4YTsJCTwvZz4mI3hhOwkJPGcgaWQ9InNoYXBlNzg0MS00IiB0cmFuc2Zvcm09InRyYW5zbGF0ZSgxNy4yNSwtMjcuNzQyNSkiPiYjeGE7CQkJPHRpdGxlIGlkPSJ0aXRsZTE5MDA2Ij5lbGxpcHNlMjQ5Mi4yMzg0PC90aXRsZT4mI3hhOwkJCSYjeGE7CQkJCTxlbGxpcHNlIGlkPSJlbGxpcHNlMTkwMDgiIHN0eWxlPSJmaWxsOm5vbmU7c3Ryb2tlOiNBQUI1QzU7c3Ryb2tlLXdpZHRoOjM7c3Ryb2tlLW1pdGVybGltaXQ6MzsiIGN4PSIxMy4xMyIgY3k9IjYxLjQ5IiByeD0iMTMuMTMiIHJ5PSIzMCIvPiYjeGE7CQk8L2c+JiN4YTsJCTxnIGlkPSJzaGFwZTc4NDItNiIgdHJhbnNmb3JtPSJ0cmFuc2xhdGUoMy41NDc1LC03MS4yNDI1KSI+JiN4YTsJCQk8dGl0bGUgaWQ9InRpdGxlMTkwMTEiPnBhdGgyNDk0LjIzODU8L3RpdGxlPiYjeGE7CQkJPHBhdGggaWQ9InBhdGgxOTAxMyIgaW5rc2NhcGU6Y29ubmVjdG9yLWN1cnZhdHVyZT0iMCIgc3R5bGU9ImZpbGw6bm9uZTsiIGQ9Ik01Mi41LDg5LjI0Yy00LjY0LDEuMzMtMTQuNjMsMi4yNS0yNi4xOCwyLjI1ICAgICBjLTExLjY4LDAtMjEuNzUtMC45Mi0yNi4zMi0yLjI1SDUyLjV6Ii8+JiN4YTsJCQkmI3hhOwkJCQk8cGF0aCBpZD0icGF0aDE5MDE1IiBpbmtzY2FwZTpjb25uZWN0b3ItY3VydmF0dXJlPSIwIiBzdHlsZT0iZmlsbDpub25lO3N0cm9rZTojQUFCNUM1O3N0cm9rZS13aWR0aDozO3N0cm9rZS1taXRlcmxpbWl0OjM7IiBkPSIgICAgIE01Mi41LDg5LjI0Yy00LjY0LDEuMzMtMTQuNjMsMi4yNS0yNi4xOCwyLjI1Yy0xMS42OCwwLTIxLjc1LTAuOTItMjYuMzItMi4yNSIvPiYjeGE7CQk8L2c+JiN4YTsJCTxnIGlkPSJzaGFwZTc4NDMtOSIgdHJhbnNmb3JtPSJ0cmFuc2xhdGUoMy41NDc1LC00Mi40NDI1KSI+JiN4YTsJCQk8dGl0bGUgaWQ9InRpdGxlMTkwMTgiPnBhdGgyNDk2LjIzODY8L3RpdGxlPiYjeGE7CQkJPHBhdGggaWQ9InBhdGgxOTAyMCIgaW5rc2NhcGU6Y29ubmVjdG9yLWN1cnZhdHVyZT0iMCIgc3R5bGU9ImZpbGw6bm9uZTsiIGQ9Ik0wLDkxLjQ5YzQuMzUtMS4zMiwxNC41NC0yLjI1LDI2LjQxLTIuMjUgICAgIGMxMS41OCwwLDIxLjU3LDAuODksMjYuMDksMi4xNkwwLDkxLjQ5eiIvPiYjeGE7CQkJJiN4YTsJCQkJPHBhdGggaWQ9InBhdGgxOTAyMiIgaW5rc2NhcGU6Y29ubmVjdG9yLWN1cnZhdHVyZT0iMCIgc3R5bGU9ImZpbGw6bm9uZTtzdHJva2U6I0FBQjVDNTtzdHJva2Utd2lkdGg6MztzdHJva2UtbWl0ZXJsaW1pdDozOyIgZD0iICAgICBNMCw5MS40OWM0LjM1LTEuMzIsMTQuNTQtMi4yNSwyNi40MS0yLjI1YzExLjU4LDAsMjEuNTcsMC44OSwyNi4wOSwyLjE2Ii8+JiN4YTsJCTwvZz4mI3hhOwkJPGcgaWQ9InNoYXBlNzg0NC0xMiIgdHJhbnNmb3JtPSJ0cmFuc2xhdGUoMCwtNTcuNzQyNSkiPiYjeGE7CQkJPHRpdGxlIGlkPSJ0aXRsZTE5MDI1Ij5saW5lMjQ5OC4yMzg3PC90aXRsZT4mI3hhOwkJCSYjeGE7CQkJCTxwYXRoIGlkPSJwYXRoMTkwMjciIGlua3NjYXBlOmNvbm5lY3Rvci1jdXJ2YXR1cmU9IjAiIHN0eWxlPSJmaWxsOm5vbmU7c3Ryb2tlOiNBQUI1QzU7c3Ryb2tlLXdpZHRoOjM7c3Ryb2tlLW1pdGVybGltaXQ6MzsiIGQ9IiAgICAgTTAsOTEuNDloNjAuNzUiLz4mI3hhOwkJPC9nPiYjeGE7CQk8ZyBpZD0ic2hhcGU3ODQ1LTE1IiB0cmFuc2Zvcm09InRyYW5zbGF0ZSg0OC43NSwtOC45OTI1KSI+JiN4YTsJCQk8dGl0bGUgaWQ9InRpdGxlMTkwMzAiPnBvbHlnb24yNTA0LjIzODk8L3RpdGxlPiYjeGE7CQkJPHBhdGggaWQ9InBhdGgxOTAzMiIgaW5rc2NhcGU6Y29ubmVjdG9yLWN1cnZhdHVyZT0iMCIgc3R5bGU9ImZpbGw6IzU2NjE2RDsiIGQ9Ik0wLDYzLjc0aDAuNzV2LTIuMjVIMHYtMy43NWgwLjc1di0yLjI1SDB2LTMgICAgIGgwLjc1di0yLjI1SDB2LTMuNzVoMC43NXYtMi4yNUgwdi0zLjc1aDAuNzV2LTIuMjVIMHYtNy41aDM2Ljc1djYwLjc1SDBWNjMuNzR6Ii8+JiN4YTsJCTwvZz4mI3hhOwkJPGcgaWQ9InNoYXBlNzg0Ni0xNyIgdHJhbnNmb3JtPSJ0cmFuc2xhdGUoNzIsLTUzLjk5MjUpIj4mI3hhOwkJCTx0aXRsZSBpZD0idGl0bGUxOTAzNSI+cmVjdDI1MDYuMjM5MDwvdGl0bGU+JiN4YTsJCQk8cmVjdCBpZD0icmVjdDE5MDM3IiB5PSI4OS4yNCIgd2lkdGg9IjEzLjUiIGhlaWdodD0iMi4yNSIvPiYjeGE7CQk8L2c+JiN4YTsJCTxnIGlkPSJzaGFwZTc4NDctMTkiIHRyYW5zZm9ybT0idHJhbnNsYXRlKDcyLC00Ny45OTI1KSI+JiN4YTsJCQk8dGl0bGUgaWQ9InRpdGxlMTkwNDAiPnJlY3QyNTA4LjIzOTE8L3RpdGxlPiYjeGE7CQkJPHJlY3QgaWQ9InJlY3QxOTA0MiIgeT0iODkuMjQiIHdpZHRoPSIxMy41IiBoZWlnaHQ9IjIuMjUiLz4mI3hhOwkJPC9nPiYjeGE7CQk8ZyBpZD0ic2hhcGU3ODQ4LTIxIiB0cmFuc2Zvcm09InRyYW5zbGF0ZSg3MiwtNTkuOTkyNSkiPiYjeGE7CQkJPHRpdGxlIGlkPSJ0aXRsZTE5MDQ1Ij5yZWN0MjUxMC4yMzkyPC90aXRsZT4mI3hhOwkJCTxyZWN0IGlkPSJyZWN0MTkwNDciIHk9Ijg5LjI0IiB3aWR0aD0iMTMuNSIgaGVpZ2h0PSIyLjI1Ii8+JiN4YTsJCTwvZz4mI3hhOwkJPGcgaWQ9InNoYXBlNzg0OS0yMyIgdHJhbnNmb3JtPSJ0cmFuc2xhdGUoNDkuNSwtNTMuOTkyNSkiPiYjeGE7CQkJPHRpdGxlIGlkPSJ0aXRsZTE5MDUwIj5yZWN0MjUxMi4yMzkzPC90aXRsZT4mI3hhOwkJCTxyZWN0IGlkPSJyZWN0MTkwNTIiIHk9Ijg5LjI0IiBzdHlsZT0iZmlsbDojMzMzMzMzOyIgd2lkdGg9IjE2LjUiIGhlaWdodD0iMi4yNSIvPiYjeGE7CQk8L2c+JiN4YTsJCTxnIGlkPSJzaGFwZTc4NTAtMjUiIHRyYW5zZm9ybT0idHJhbnNsYXRlKDQ5LjUsLTQ3Ljk5MjUpIj4mI3hhOwkJCTx0aXRsZSBpZD0idGl0bGUxOTA1NSI+cmVjdDI1MTQuMjM5NDwvdGl0bGU+JiN4YTsJCQk8cmVjdCBpZD0icmVjdDE5MDU3IiB5PSI4OS4yNCIgc3R5bGU9ImZpbGw6IzMzMzMzMzsiIHdpZHRoPSIxNi41IiBoZWlnaHQ9IjIuMjUiLz4mI3hhOwkJPC9nPiYjeGE7CQk8ZyBpZD0ic2hhcGU3ODUxLTI3IiB0cmFuc2Zvcm09InRyYW5zbGF0ZSg0OS41LC01OS45OTI1KSI+JiN4YTsJCQk8dGl0bGUgaWQ9InRpdGxlMTkwNjAiPnJlY3QyNTE2LjIzOTU8L3RpdGxlPiYjeGE7CQkJPHJlY3QgaWQ9InJlY3QxOTA2MiIgeT0iODkuMjQiIHN0eWxlPSJmaWxsOiMzMzMzMzM7IiB3aWR0aD0iMTYuNSIgaGVpZ2h0PSIyLjI1Ii8+JiN4YTsJCTwvZz4mI3hhOwkJPGcgaWQ9InNoYXBlNzg1Mi0yOSIgdHJhbnNmb3JtPSJ0cmFuc2xhdGUoNzIsLTguOTkyNSkiPiYjeGE7CQkJPHRpdGxlIGlkPSJ0aXRsZTE5MDY1Ij5wb2x5Z29uMjUxOC4yMzk2PC90aXRsZT4mI3hhOwkJCTxwYXRoIGlkPSJwYXRoMTkwNjciIGlua3NjYXBlOmNvbm5lY3Rvci1jdXJ2YXR1cmU9IjAiIHN0eWxlPSJmaWxsOiM0NzRGNTk7IiBkPSJNMTEuMjUsMzguMjR2Mi4yNUgwdjMuNzVoMTEuMjV2Mi4yNUgwdjMuNzUgICAgIGgxMS4yNXYyLjI1SDB2MzloMTMuNVYzMC43NEgwdjcuNUwxMS4yNSwzOC4yNHoiLz4mI3hhOwkJPC9nPiYjeGE7CQk8ZyBpZD0ic2hhcGU3ODUzLTMxIiB0cmFuc2Zvcm09InRyYW5zbGF0ZSg0OS41LC01OS45OTI1KSI+JiN4YTsJCQk8dGl0bGUgaWQ9InRpdGxlMTkwNzAiPnBvbHlnb24yNTIwLjIzOTc8L3RpdGxlPiYjeGE7CQkJPHJlY3QgaWQ9InJlY3QxOTA3MiIgeT0iODkuMjQiIHN0eWxlPSJmaWxsOm5vbmU7IiB3aWR0aD0iMjQuNzUiIGhlaWdodD0iMi4yNSIvPiYjeGE7CQk8L2c+JiN4YTsJCTxnIGlkPSJzaGFwZTc4NTQtMzMiIHRyYW5zZm9ybT0idHJhbnNsYXRlKDQ5LjUsLTU5Ljk5MjUpIj4mI3hhOwkJCTx0aXRsZSBpZD0idGl0bGUxOTA3NSI+cG9seWxpbmUyNTIyLjIzOTg8L3RpdGxlPiYjeGE7CQkJPHJlY3QgaWQ9InJlY3QxOTA3NyIgeT0iODkuMjQiIHN0eWxlPSJmaWxsOm5vbmU7IiB3aWR0aD0iMjQuNzUiIGhlaWdodD0iMi4yNSIvPiYjeGE7CQk8L2c+JiN4YTsJCTxnIGlkPSJzaGFwZTc4NTUtMzUiIHRyYW5zZm9ybT0idHJhbnNsYXRlKDY2LC01OS45OTI1KSI+JiN4YTsJCQk8dGl0bGUgaWQ9InRpdGxlMTkwODAiPnBvbHlnb24yNTI0LjIzOTk8L3RpdGxlPiYjeGE7CQkJPHJlY3QgaWQ9InJlY3QxOTA4MiIgeT0iODkuMjQiIHN0eWxlPSJmaWxsOiM1NUE1RTQ7IiB3aWR0aD0iNiIgaGVpZ2h0PSIyLjI1Ii8+JiN4YTsJCTwvZz4mI3hhOwkJPGcgaWQ9InNoYXBlNzg1Ni0zNyIgdHJhbnNmb3JtPSJ0cmFuc2xhdGUoNjYsLTUzLjk5MjUpIj4mI3hhOwkJCTx0aXRsZSBpZD0idGl0bGUxOTA4NSI+cG9seWdvbjI1MjYuMjQwMDwvdGl0bGU+JiN4YTsJCQk8cmVjdCBpZD0icmVjdDE5MDg3IiB5PSI4OS4yNCIgc3R5bGU9ImZpbGw6IzU1QTVFNDsiIHdpZHRoPSI2IiBoZWlnaHQ9IjIuMjUiLz4mI3hhOwkJPC9nPiYjeGE7CQk8ZyBpZD0ic2hhcGU3ODU3LTM5IiB0cmFuc2Zvcm09InRyYW5zbGF0ZSg2NiwtNDcuOTkyNSkiPiYjeGE7CQkJPHRpdGxlIGlkPSJ0aXRsZTE5MDkwIj5wb2x5Z29uMjUyOC4yNDAxPC90aXRsZT4mI3hhOwkJCTxyZWN0IGlkPSJyZWN0MTkwOTIiIHk9Ijg5LjI0IiBzdHlsZT0iZmlsbDojNTVBNUU0OyIgd2lkdGg9IjYiIGhlaWdodD0iMi4yNSIvPiYjeGE7CQk8L2c+JiN4YTsJCTxnIGlkPSJzaGFwZTc4NTgtNDEiIHRyYW5zZm9ybT0idHJhbnNsYXRlKDc2LjQ5MjUpIj4mI3hhOwkJCTx0aXRsZSBpZD0idGl0bGUxOTA5NSI+cGF0aDI1MzAuMjQwMjwvdGl0bGU+JiN4YTsJCQk8cGF0aCBpZD0icGF0aDE5MDk3IiBpbmtzY2FwZTpjb25uZWN0b3ItY3VydmF0dXJlPSIwIiBzdHlsZT0iZmlsbDojOTI3M0I2OyIgZD0iTTI5LjUzLDc0LjY2bC0zLjU5LTAuMzkgICAgIGMtMC4yOC0wLjAzLTAuNTEtMC4yNC0wLjU2LTAuNTFjLTAuMjEtMC44OS0wLjUzLTEuNzQtMC45Ni0yLjU1Yy0wLjEyLTAuMjUtMC4wOC0wLjU0LDAuMDktMC43NWwyLjI1LTIuNzcgICAgIGMwLjIzLTAuMjgsMC4yMS0wLjY5LTAuMDUtMC45NGwtMS44Ny0xLjg3Yy0wLjI1LTAuMjUtMC42NS0wLjI3LTAuOTItMC4wNUwyMS4yMiw2N2MtMC4yMiwwLjE3LTAuNTEsMC4xOS0wLjc1LDAuMDYgICAgIGMtMC43NS0wLjQ1LTEuNTYtMC44MS0yLjQtMS4wNmMtMC4yNi0wLjA4LTAuNDUtMC4zMS0wLjQ4LTAuNThsLTAuMzktMy40NGMtMC4wNC0wLjM2LTAuMzQtMC40OC0wLjY5LTAuNDhoLTIuNjUgICAgIGMtMC4zNSwwLTAuNjUsMC4xMy0wLjY5LDAuNDhsLTAuMzgsMy40MmMtMC4wNCwwLjI4LTAuMjUsMC41MS0wLjUzLDAuNTZjLTAuOTMsMC4yNC0xLjgyLDAuNi0yLjY2LDEuMDggICAgIGMtMC4yNCwwLjEzLTAuNTMsMC4xMS0wLjc1LTAuMDZMNi4yLDY0LjgzYy0wLjI3LTAuMjItMC42Ny0wLjItMC45MiwwLjA0bC0xLjg5LDEuODhDMy4xNCw2NywzLjEyLDY3LjQsMy4zNCw2Ny42N2wyLjE3LDIuNzEgICAgIGMwLjE3LDAuMjIsMC4xOSwwLjUxLDAuMDYsMC43NWMtMC40NSwwLjgzLTAuNzksMS43MS0xLjAxLDIuNjJjLTAuMDcsMC4yOC0wLjMyLDAuNDktMC42MSwwLjUybC0zLjQzLDAuMzggICAgIEMwLjE5LDc0LjctMC4wNCw3NS4wMSwwLDc1LjM0TDAsNzhjLTAuMDQsMC4zMywwLjE5LDAuNjQsMC41MiwwLjY5bDMuNjksMC40MWMwLjI3LDAuMDMsMC40OSwwLjIyLDAuNTYsMC40NyAgICAgYzAuMjIsMC42OCwwLjUsMS4zNCwwLjg1LDEuOTdjMC4xMywwLjI0LDAuMSwwLjU0LTAuMDcsMC43NWwtMi4yMiwyLjc1Yy0wLjIyLDAuMjctMC4yLDAuNjcsMC4wNSwwLjkybDEuODcsMS44NyAgICAgYzAuMjUsMC4yNSwwLjY1LDAuMjcsMC45MiwwLjA1bDIuNzMtMi4xOWMwLjIzLTAuMTgsMC41NC0wLjIsMC43OS0wLjA1YzAuNzIsMC40MSwxLjQ5LDAuNzMsMi4yOCwwLjk2ICAgICBjMC4yOCwwLjA3LDAuNDgsMC4zMSwwLjUxLDAuNTlsMC40LDMuNjljMC4wNCwwLjM1LDAuMzQsMC42MiwwLjY5LDAuNjFsMi42NSwwYzAuMzUsMCwwLjY1LTAuMjYsMC42OS0wLjYxbDAuMzktMy42NCAgICAgYzAuMDMtMC4yOCwwLjIzLTAuNTEsMC41LTAuNThjMC44OS0wLjI0LDEuNzUtMC42LDIuNTUtMS4wNmMwLjI0LTAuMTMsMC41NC0wLjEsMC43NSwwLjA3bDIuNzcsMi4yNSAgICAgYzAuMjgsMC4yMiwwLjY3LDAuMiwwLjkyLTAuMDVsMS44Ny0xLjg3YzAuMjUtMC4yNSwwLjI3LTAuNjUsMC4wNS0wLjkybC0yLjI0LTIuODNjLTAuMTYtMC4yMi0wLjE5LTAuNTEtMC4wNi0wLjc1ICAgICBjMC4zMi0wLjU5LDAuNTgtMS4yMSwwLjc4LTEuODVjMC4wOC0wLjI2LDAuMzEtMC40NiwwLjU4LTAuNDlsMy43Ni0wLjQxQzI5Ljg3LDc4LjcsMzAsNzguNCwzMCw3OC4wNVY3NS40ICAgICBDMzAuMDEsNzUsMjkuODgsNzQuNywyOS41Myw3NC42NnogTTE1LjAxLDgxLjg2Yy0zLjA0LDAtNS41MS0yLjQ2LTUuNTEtNS41YzAtMy4wNCwyLjQ2LTUuNTEsNS41LTUuNTFzNS41MSwyLjQ2LDUuNTEsNS41ICAgICBjMCwwLDAsMC4wMSwwLDAuMDFDMjAuNTEsNzkuNCwxOC4wNSw4MS44NiwxNS4wMSw4MS44NnoiLz4mI3hhOwkJPC9nPiYjeGE7CTwvZz4mI3hhOzwvZz4mI3hhOzwvc3ZnPg==;" vertex="1" parent="1">
          <mxGeometry x="280" y="170" width="108" height="89" as="geometry" />
        </mxCell>
        <mxCell id="cizuM7O_poYgmAaUD8hP-41" style="edgeStyle=orthogonalEdgeStyle;rounded=0;orthogonalLoop=1;jettySize=auto;html=1;entryX=0.5;entryY=1;entryDx=0;entryDy=0;" edge="1" parent="1" source="cizuM7O_poYgmAaUD8hP-8" target="cizuM7O_poYgmAaUD8hP-40">
          <mxGeometry relative="1" as="geometry" />
        </mxCell>
        <mxCell id="cizuM7O_poYgmAaUD8hP-8" value="" style="swimlane;startSize=0;" vertex="1" parent="1">
          <mxGeometry x="10" y="310" width="490" height="290" as="geometry" />
        </mxCell>
        <mxCell id="cizuM7O_poYgmAaUD8hP-9" value="Ansible &#xa;&#xa;Provisioner&#xa;" style="shape=image;verticalLabelPosition=bottom;labelBackgroundColor=#ffffff;verticalAlign=top;aspect=fixed;imageAspect=0;image=data:image/svg+xml,PHN2ZyB4bWxuczpjYz0iaHR0cDovL2NyZWF0aXZlY29tbW9ucy5vcmcvbnMjIiB4bWxuczpkYz0iaHR0cDovL3B1cmwub3JnL2RjL2VsZW1lbnRzLzEuMS8iIHhtbG5zOmlua3NjYXBlPSJodHRwOi8vd3d3Lmlua3NjYXBlLm9yZy9uYW1lc3BhY2VzL2lua3NjYXBlIiB4bWxuczpyZGY9Imh0dHA6Ly93d3cudzMub3JnLzE5OTkvMDIvMjItcmRmLXN5bnRheC1ucyMiIHhtbG5zOnNvZGlwb2RpPSJodHRwOi8vc29kaXBvZGkuc291cmNlZm9yZ2UubmV0L0RURC9zb2RpcG9kaS0wLmR0ZCIgeG1sbnM6c3ZnPSJodHRwOi8vd3d3LnczLm9yZy8yMDAwL3N2ZyIgeG1sbnM9Imh0dHA6Ly93d3cudzMub3JnLzIwMDAvc3ZnIiB4bWxuczp4bGluaz0iaHR0cDovL3d3dy53My5vcmcvMTk5OS94bGluayIgdmVyc2lvbj0iMS4xIiBpZD0ic3ZnMjMxMzAiIHg9IjBweCIgeT0iMHB4IiB2aWV3Qm94PSIwIDAgNDIgMzAiIHN0eWxlPSJlbmFibGUtYmFja2dyb3VuZDpuZXcgMCAwIDQyIDMwOyIgeG1sOnNwYWNlPSJwcmVzZXJ2ZSI+JiN4YTs8c29kaXBvZGk6bmFtZWR2aWV3IGJvcmRlcmNvbG9yPSIjNjY2NjY2IiBib3JkZXJvcGFjaXR5PSIxIiBmaXQtbWFyZ2luLWJvdHRvbT0iMCIgZml0LW1hcmdpbi1sZWZ0PSIwIiBmaXQtbWFyZ2luLXJpZ2h0PSIwIiBmaXQtbWFyZ2luLXRvcD0iMCIgZ3JpZHRvbGVyYW5jZT0iMTAiIGd1aWRldG9sZXJhbmNlPSIxMCIgaWQ9Im5hbWVkdmlldzIzMTMyIiBpbmtzY2FwZTpjdXJyZW50LWxheWVyPSJzdmcyMzEzMCIgaW5rc2NhcGU6Y3g9IjI2LjEzMzkyNSIgaW5rc2NhcGU6Y3k9IjE1Ljc4MzM2NSIgaW5rc2NhcGU6cGFnZW9wYWNpdHk9IjAiIGlua3NjYXBlOnBhZ2VzaGFkb3c9IjIiIGlua3NjYXBlOndpbmRvdy1oZWlnaHQ9IjEwMTciIGlua3NjYXBlOndpbmRvdy1tYXhpbWl6ZWQ9IjEiIGlua3NjYXBlOndpbmRvdy13aWR0aD0iMTkyMCIgaW5rc2NhcGU6d2luZG93LXg9Ii04IiBpbmtzY2FwZTp3aW5kb3cteT0iLTgiIGlua3NjYXBlOnpvb209IjE0LjU5NjcwNCIgb2JqZWN0dG9sZXJhbmNlPSIxMCIgcGFnZWNvbG9yPSIjZmZmZmZmIiBzaG93Z3JpZD0iZmFsc2UiPiYjeGE7CTwvc29kaXBvZGk6bmFtZWR2aWV3PiYjeGE7PGcgaWQ9ImcyMzEyOCIgdHJhbnNmb3JtPSJ0cmFuc2xhdGUoLTAuNzQ5OTkyMDMsLTAuNzQ5OTkyMDMpIj4mI3hhOwk8dGl0bGUgaWQ9InRpdGxlMjMwOTUiPlBhZ2UtMTwvdGl0bGU+JiN4YTsJPGcgaWQ9Imdyb3VwMTgxOS0xIiB0cmFuc2Zvcm09InRyYW5zbGF0ZSgxLjUsLTEuNSkiPiYjeGE7CQk8dGl0bGUgaWQ9InRpdGxlMjMwOTciPkFwcGxpY2F0aW9uICMxPC90aXRsZT4mI3hhOwkJPGcgaWQ9InNoYXBlMTgyMC0yIj4mI3hhOwkJCTx0aXRsZSBpZD0idGl0bGUyMzA5OSI+cmVjdDM3OTguMjc1OTE8L3RpdGxlPiYjeGE7CQkJJiN4YTsJCQkJPHBhdGggaWQ9InBhdGgyMzEwMSIgaW5rc2NhcGU6Y29ubmVjdG9yLWN1cnZhdHVyZT0iMCIgc3R5bGU9ImZpbGwtcnVsZTpldmVub2RkO2NsaXAtcnVsZTpldmVub2RkO2ZpbGw6I0ZGRkZGRjtzdHJva2U6IzU1NkE4QTtzdHJva2Utd2lkdGg6MS41O3N0cm9rZS1taXRlcmxpbWl0OjM7IiBkPSIgICAgIE0wLDI5Ljk1YzAsMC44NSwwLjY5LDEuNTUsMS41NCwxLjU1aDM3LjQxYzAuODUsMCwxLjU1LTAuNjksMS41NS0xLjU0YzAsMCwwLTAuMDEsMC0wLjAxVjQuNTRDNDAuNSwzLjY5LDM5LjgsMywzOC45NSwzSDEuNTQgICAgIEMwLjY5LDMsMCwzLjY5LDAsNC41NFYyOS45NXoiLz4mI3hhOwkJPC9nPiYjeGE7CQk8ZyBpZD0iZ3JvdXAxODIxLTQiIHRyYW5zZm9ybT0idHJhbnNsYXRlKDExLjI1LC02KSI+JiN4YTsJCQk8dGl0bGUgaWQ9InRpdGxlMjMxMDQiPmczODA4LjI3NTkyPC90aXRsZT4mI3hhOwkJCTxnIGlkPSJzaGFwZTE4MjItNSIgdHJhbnNmb3JtPSJ0cmFuc2xhdGUoMC42OTc1LC04Ljk5MjUpIj4mI3hhOwkJCQk8dGl0bGUgaWQ9InRpdGxlMjMxMDYiPnBvbHlnb24zODAyPC90aXRsZT4mI3hhOwkJCQk8cGF0aCBpZD0icGF0aDIzMTA4IiBpbmtzY2FwZTpjb25uZWN0b3ItY3VydmF0dXJlPSIwIiBzdHlsZT0iZmlsbC1ydWxlOmV2ZW5vZGQ7Y2xpcC1ydWxlOmV2ZW5vZGQ7ZmlsbDojMkJDN0Y0OyIgZD0iICAgICAgTTYuOCwyNC4zNkwwLDI3LjgxbDYuOCwzLjY5bDYuNzUtMy43Nkw2LjgsMjQuMzZ6Ii8+JiN4YTsJCQk8L2c+JiN4YTsJCQk8ZyBpZD0ic2hhcGUxODIzLTciPiYjeGE7CQkJCTx0aXRsZSBpZD0idGl0bGUyMzExMSI+cG9seWdvbjM4MDQ8L3RpdGxlPiYjeGE7CQkJCTxwYXRoIGlkPSJwYXRoMjMxMTMiIGlua3NjYXBlOmNvbm5lY3Rvci1jdXJ2YXR1cmU9IjAiIHN0eWxlPSJmaWxsLXJ1bGU6ZXZlbm9kZDtjbGlwLXJ1bGU6ZXZlbm9kZDtmaWxsOiMyQkM3RjQ7IiBkPSJNMCwyNy42NCAgICAgIGw2Ljc1LDMuODZ2LTguMjdMMCwxOS41NlYyNy42NHoiLz4mI3hhOwkJCTwvZz4mI3hhOwkJCTxnIGlkPSJzaGFwZTE4MjQtOSIgdHJhbnNmb3JtPSJ0cmFuc2xhdGUoOC4yNSkiPiYjeGE7CQkJCTx0aXRsZSBpZD0idGl0bGUyMzExNiI+cG9seWdvbjM4MDY8L3RpdGxlPiYjeGE7CQkJCTxwYXRoIGlkPSJwYXRoMjMxMTgiIGlua3NjYXBlOmNvbm5lY3Rvci1jdXJ2YXR1cmU9IjAiIHN0eWxlPSJmaWxsLXJ1bGU6ZXZlbm9kZDtjbGlwLXJ1bGU6ZXZlbm9kZDtmaWxsOiMyQkM3RjQ7IiBkPSIgICAgICBNNi43NSwyNy42NEwwLDMxLjV2LTguMjdsNi43NS0zLjY3VjI3LjY0eiIvPiYjeGE7CQkJPC9nPiYjeGE7CQk8L2c+JiN4YTsJCTxnIGlkPSJzaGFwZTE4MjUtMTEiIHRyYW5zZm9ybT0idHJhbnNsYXRlKDM2Ljc1LC0xMS4yNSkiPiYjeGE7CQkJPHRpdGxlIGlkPSJ0aXRsZTIzMTIyIj5yZWN0Mzg0Ni4yNzYwODwvdGl0bGU+JiN4YTsJCQk8cGF0aCBpZD0icGF0aDIzMTI0IiBpbmtzY2FwZTpjb25uZWN0b3ItY3VydmF0dXJlPSIwIiBzdHlsZT0iZmlsbC1ydWxlOmV2ZW5vZGQ7Y2xpcC1ydWxlOmV2ZW5vZGQ7ZmlsbDojOURBOEI3OyIgZD0iTTAsMzAuNzUgICAgIGMwLDAuNDEsMC4zNCwwLjc1LDAuNzUsMC43NWMwLjQxLDAsMC43NS0wLjM0LDAuNzUtMC43NXYtNC41YzAtMC40MS0wLjM0LTAuNzUtMC43NS0wLjc1QzAuMzQsMjUuNSwwLDI1Ljg0LDAsMjYuMjVWMzAuNzV6Ii8+JiN4YTsJCTwvZz4mI3hhOwk8L2c+JiN4YTs8L2c+JiN4YTs8L3N2Zz4=;" vertex="1" parent="cizuM7O_poYgmAaUD8hP-8">
          <mxGeometry x="20" y="90" width="84" height="60" as="geometry" />
        </mxCell>
        <mxCell id="cizuM7O_poYgmAaUD8hP-10" value="Pentest&#xa;Playbook&#xa;" style="shape=image;verticalLabelPosition=bottom;labelBackgroundColor=#ffffff;verticalAlign=top;aspect=fixed;imageAspect=0;image=data:image/svg+xml,PHN2ZyB4bWxuczpjYz0iaHR0cDovL2NyZWF0aXZlY29tbW9ucy5vcmcvbnMjIiB4bWxuczpkYz0iaHR0cDovL3B1cmwub3JnL2RjL2VsZW1lbnRzLzEuMS8iIHhtbG5zOmlua3NjYXBlPSJodHRwOi8vd3d3Lmlua3NjYXBlLm9yZy9uYW1lc3BhY2VzL2lua3NjYXBlIiB4bWxuczpyZGY9Imh0dHA6Ly93d3cudzMub3JnLzE5OTkvMDIvMjItcmRmLXN5bnRheC1ucyMiIHhtbG5zOnNvZGlwb2RpPSJodHRwOi8vc29kaXBvZGkuc291cmNlZm9yZ2UubmV0L0RURC9zb2RpcG9kaS0wLmR0ZCIgeG1sbnM6c3ZnPSJodHRwOi8vd3d3LnczLm9yZy8yMDAwL3N2ZyIgeG1sbnM9Imh0dHA6Ly93d3cudzMub3JnLzIwMDAvc3ZnIiB4bWxuczp4bGluaz0iaHR0cDovL3d3dy53My5vcmcvMTk5OS94bGluayIgdmVyc2lvbj0iMS4xIiBpZD0ic3ZnMjMxMzAiIHg9IjBweCIgeT0iMHB4IiB2aWV3Qm94PSIwIDAgNDIgMzAiIHN0eWxlPSJlbmFibGUtYmFja2dyb3VuZDpuZXcgMCAwIDQyIDMwOyIgeG1sOnNwYWNlPSJwcmVzZXJ2ZSI+JiN4YTs8c29kaXBvZGk6bmFtZWR2aWV3IGJvcmRlcmNvbG9yPSIjNjY2NjY2IiBib3JkZXJvcGFjaXR5PSIxIiBmaXQtbWFyZ2luLWJvdHRvbT0iMCIgZml0LW1hcmdpbi1sZWZ0PSIwIiBmaXQtbWFyZ2luLXJpZ2h0PSIwIiBmaXQtbWFyZ2luLXRvcD0iMCIgZ3JpZHRvbGVyYW5jZT0iMTAiIGd1aWRldG9sZXJhbmNlPSIxMCIgaWQ9Im5hbWVkdmlldzIzMTMyIiBpbmtzY2FwZTpjdXJyZW50LWxheWVyPSJzdmcyMzEzMCIgaW5rc2NhcGU6Y3g9IjI2LjEzMzkyNSIgaW5rc2NhcGU6Y3k9IjE1Ljc4MzM2NSIgaW5rc2NhcGU6cGFnZW9wYWNpdHk9IjAiIGlua3NjYXBlOnBhZ2VzaGFkb3c9IjIiIGlua3NjYXBlOndpbmRvdy1oZWlnaHQ9IjEwMTciIGlua3NjYXBlOndpbmRvdy1tYXhpbWl6ZWQ9IjEiIGlua3NjYXBlOndpbmRvdy13aWR0aD0iMTkyMCIgaW5rc2NhcGU6d2luZG93LXg9Ii04IiBpbmtzY2FwZTp3aW5kb3cteT0iLTgiIGlua3NjYXBlOnpvb209IjE0LjU5NjcwNCIgb2JqZWN0dG9sZXJhbmNlPSIxMCIgcGFnZWNvbG9yPSIjZmZmZmZmIiBzaG93Z3JpZD0iZmFsc2UiPiYjeGE7CTwvc29kaXBvZGk6bmFtZWR2aWV3PiYjeGE7PGcgaWQ9ImcyMzEyOCIgdHJhbnNmb3JtPSJ0cmFuc2xhdGUoLTAuNzQ5OTkyMDMsLTAuNzQ5OTkyMDMpIj4mI3hhOwk8dGl0bGUgaWQ9InRpdGxlMjMwOTUiPlBhZ2UtMTwvdGl0bGU+JiN4YTsJPGcgaWQ9Imdyb3VwMTgxOS0xIiB0cmFuc2Zvcm09InRyYW5zbGF0ZSgxLjUsLTEuNSkiPiYjeGE7CQk8dGl0bGUgaWQ9InRpdGxlMjMwOTciPkFwcGxpY2F0aW9uICMxPC90aXRsZT4mI3hhOwkJPGcgaWQ9InNoYXBlMTgyMC0yIj4mI3hhOwkJCTx0aXRsZSBpZD0idGl0bGUyMzA5OSI+cmVjdDM3OTguMjc1OTE8L3RpdGxlPiYjeGE7CQkJJiN4YTsJCQkJPHBhdGggaWQ9InBhdGgyMzEwMSIgaW5rc2NhcGU6Y29ubmVjdG9yLWN1cnZhdHVyZT0iMCIgc3R5bGU9ImZpbGwtcnVsZTpldmVub2RkO2NsaXAtcnVsZTpldmVub2RkO2ZpbGw6I0ZGRkZGRjtzdHJva2U6IzU1NkE4QTtzdHJva2Utd2lkdGg6MS41O3N0cm9rZS1taXRlcmxpbWl0OjM7IiBkPSIgICAgIE0wLDI5Ljk1YzAsMC44NSwwLjY5LDEuNTUsMS41NCwxLjU1aDM3LjQxYzAuODUsMCwxLjU1LTAuNjksMS41NS0xLjU0YzAsMCwwLTAuMDEsMC0wLjAxVjQuNTRDNDAuNSwzLjY5LDM5LjgsMywzOC45NSwzSDEuNTQgICAgIEMwLjY5LDMsMCwzLjY5LDAsNC41NFYyOS45NXoiLz4mI3hhOwkJPC9nPiYjeGE7CQk8ZyBpZD0iZ3JvdXAxODIxLTQiIHRyYW5zZm9ybT0idHJhbnNsYXRlKDExLjI1LC02KSI+JiN4YTsJCQk8dGl0bGUgaWQ9InRpdGxlMjMxMDQiPmczODA4LjI3NTkyPC90aXRsZT4mI3hhOwkJCTxnIGlkPSJzaGFwZTE4MjItNSIgdHJhbnNmb3JtPSJ0cmFuc2xhdGUoMC42OTc1LC04Ljk5MjUpIj4mI3hhOwkJCQk8dGl0bGUgaWQ9InRpdGxlMjMxMDYiPnBvbHlnb24zODAyPC90aXRsZT4mI3hhOwkJCQk8cGF0aCBpZD0icGF0aDIzMTA4IiBpbmtzY2FwZTpjb25uZWN0b3ItY3VydmF0dXJlPSIwIiBzdHlsZT0iZmlsbC1ydWxlOmV2ZW5vZGQ7Y2xpcC1ydWxlOmV2ZW5vZGQ7ZmlsbDojMkJDN0Y0OyIgZD0iICAgICAgTTYuOCwyNC4zNkwwLDI3LjgxbDYuOCwzLjY5bDYuNzUtMy43Nkw2LjgsMjQuMzZ6Ii8+JiN4YTsJCQk8L2c+JiN4YTsJCQk8ZyBpZD0ic2hhcGUxODIzLTciPiYjeGE7CQkJCTx0aXRsZSBpZD0idGl0bGUyMzExMSI+cG9seWdvbjM4MDQ8L3RpdGxlPiYjeGE7CQkJCTxwYXRoIGlkPSJwYXRoMjMxMTMiIGlua3NjYXBlOmNvbm5lY3Rvci1jdXJ2YXR1cmU9IjAiIHN0eWxlPSJmaWxsLXJ1bGU6ZXZlbm9kZDtjbGlwLXJ1bGU6ZXZlbm9kZDtmaWxsOiMyQkM3RjQ7IiBkPSJNMCwyNy42NCAgICAgIGw2Ljc1LDMuODZ2LTguMjdMMCwxOS41NlYyNy42NHoiLz4mI3hhOwkJCTwvZz4mI3hhOwkJCTxnIGlkPSJzaGFwZTE4MjQtOSIgdHJhbnNmb3JtPSJ0cmFuc2xhdGUoOC4yNSkiPiYjeGE7CQkJCTx0aXRsZSBpZD0idGl0bGUyMzExNiI+cG9seWdvbjM4MDY8L3RpdGxlPiYjeGE7CQkJCTxwYXRoIGlkPSJwYXRoMjMxMTgiIGlua3NjYXBlOmNvbm5lY3Rvci1jdXJ2YXR1cmU9IjAiIHN0eWxlPSJmaWxsLXJ1bGU6ZXZlbm9kZDtjbGlwLXJ1bGU6ZXZlbm9kZDtmaWxsOiMyQkM3RjQ7IiBkPSIgICAgICBNNi43NSwyNy42NEwwLDMxLjV2LTguMjdsNi43NS0zLjY3VjI3LjY0eiIvPiYjeGE7CQkJPC9nPiYjeGE7CQk8L2c+JiN4YTsJCTxnIGlkPSJzaGFwZTE4MjUtMTEiIHRyYW5zZm9ybT0idHJhbnNsYXRlKDM2Ljc1LC0xMS4yNSkiPiYjeGE7CQkJPHRpdGxlIGlkPSJ0aXRsZTIzMTIyIj5yZWN0Mzg0Ni4yNzYwODwvdGl0bGU+JiN4YTsJCQk8cGF0aCBpZD0icGF0aDIzMTI0IiBpbmtzY2FwZTpjb25uZWN0b3ItY3VydmF0dXJlPSIwIiBzdHlsZT0iZmlsbC1ydWxlOmV2ZW5vZGQ7Y2xpcC1ydWxlOmV2ZW5vZGQ7ZmlsbDojOURBOEI3OyIgZD0iTTAsMzAuNzUgICAgIGMwLDAuNDEsMC4zNCwwLjc1LDAuNzUsMC43NWMwLjQxLDAsMC43NS0wLjM0LDAuNzUtMC43NXYtNC41YzAtMC40MS0wLjM0LTAuNzUtMC43NS0wLjc1QzAuMzQsMjUuNSwwLDI1Ljg0LDAsMjYuMjVWMzAuNzV6Ii8+JiN4YTsJCTwvZz4mI3hhOwk8L2c+JiN4YTs8L2c+JiN4YTs8L3N2Zz4=;" vertex="1" parent="cizuM7O_poYgmAaUD8hP-8">
          <mxGeometry x="140" y="160" width="84" height="60" as="geometry" />
        </mxCell>
        <mxCell id="cizuM7O_poYgmAaUD8hP-12" value="DB&#xa;Playbook&#xa;" style="shape=image;verticalLabelPosition=bottom;labelBackgroundColor=#ffffff;verticalAlign=top;aspect=fixed;imageAspect=0;image=data:image/svg+xml,PHN2ZyB4bWxuczpjYz0iaHR0cDovL2NyZWF0aXZlY29tbW9ucy5vcmcvbnMjIiB4bWxuczpkYz0iaHR0cDovL3B1cmwub3JnL2RjL2VsZW1lbnRzLzEuMS8iIHhtbG5zOmlua3NjYXBlPSJodHRwOi8vd3d3Lmlua3NjYXBlLm9yZy9uYW1lc3BhY2VzL2lua3NjYXBlIiB4bWxuczpyZGY9Imh0dHA6Ly93d3cudzMub3JnLzE5OTkvMDIvMjItcmRmLXN5bnRheC1ucyMiIHhtbG5zOnNvZGlwb2RpPSJodHRwOi8vc29kaXBvZGkuc291cmNlZm9yZ2UubmV0L0RURC9zb2RpcG9kaS0wLmR0ZCIgeG1sbnM6c3ZnPSJodHRwOi8vd3d3LnczLm9yZy8yMDAwL3N2ZyIgeG1sbnM9Imh0dHA6Ly93d3cudzMub3JnLzIwMDAvc3ZnIiB4bWxuczp4bGluaz0iaHR0cDovL3d3dy53My5vcmcvMTk5OS94bGluayIgdmVyc2lvbj0iMS4xIiBpZD0ic3ZnMjMxMzAiIHg9IjBweCIgeT0iMHB4IiB2aWV3Qm94PSIwIDAgNDIgMzAiIHN0eWxlPSJlbmFibGUtYmFja2dyb3VuZDpuZXcgMCAwIDQyIDMwOyIgeG1sOnNwYWNlPSJwcmVzZXJ2ZSI+JiN4YTs8c29kaXBvZGk6bmFtZWR2aWV3IGJvcmRlcmNvbG9yPSIjNjY2NjY2IiBib3JkZXJvcGFjaXR5PSIxIiBmaXQtbWFyZ2luLWJvdHRvbT0iMCIgZml0LW1hcmdpbi1sZWZ0PSIwIiBmaXQtbWFyZ2luLXJpZ2h0PSIwIiBmaXQtbWFyZ2luLXRvcD0iMCIgZ3JpZHRvbGVyYW5jZT0iMTAiIGd1aWRldG9sZXJhbmNlPSIxMCIgaWQ9Im5hbWVkdmlldzIzMTMyIiBpbmtzY2FwZTpjdXJyZW50LWxheWVyPSJzdmcyMzEzMCIgaW5rc2NhcGU6Y3g9IjI2LjEzMzkyNSIgaW5rc2NhcGU6Y3k9IjE1Ljc4MzM2NSIgaW5rc2NhcGU6cGFnZW9wYWNpdHk9IjAiIGlua3NjYXBlOnBhZ2VzaGFkb3c9IjIiIGlua3NjYXBlOndpbmRvdy1oZWlnaHQ9IjEwMTciIGlua3NjYXBlOndpbmRvdy1tYXhpbWl6ZWQ9IjEiIGlua3NjYXBlOndpbmRvdy13aWR0aD0iMTkyMCIgaW5rc2NhcGU6d2luZG93LXg9Ii04IiBpbmtzY2FwZTp3aW5kb3cteT0iLTgiIGlua3NjYXBlOnpvb209IjE0LjU5NjcwNCIgb2JqZWN0dG9sZXJhbmNlPSIxMCIgcGFnZWNvbG9yPSIjZmZmZmZmIiBzaG93Z3JpZD0iZmFsc2UiPiYjeGE7CTwvc29kaXBvZGk6bmFtZWR2aWV3PiYjeGE7PGcgaWQ9ImcyMzEyOCIgdHJhbnNmb3JtPSJ0cmFuc2xhdGUoLTAuNzQ5OTkyMDMsLTAuNzQ5OTkyMDMpIj4mI3hhOwk8dGl0bGUgaWQ9InRpdGxlMjMwOTUiPlBhZ2UtMTwvdGl0bGU+JiN4YTsJPGcgaWQ9Imdyb3VwMTgxOS0xIiB0cmFuc2Zvcm09InRyYW5zbGF0ZSgxLjUsLTEuNSkiPiYjeGE7CQk8dGl0bGUgaWQ9InRpdGxlMjMwOTciPkFwcGxpY2F0aW9uICMxPC90aXRsZT4mI3hhOwkJPGcgaWQ9InNoYXBlMTgyMC0yIj4mI3hhOwkJCTx0aXRsZSBpZD0idGl0bGUyMzA5OSI+cmVjdDM3OTguMjc1OTE8L3RpdGxlPiYjeGE7CQkJJiN4YTsJCQkJPHBhdGggaWQ9InBhdGgyMzEwMSIgaW5rc2NhcGU6Y29ubmVjdG9yLWN1cnZhdHVyZT0iMCIgc3R5bGU9ImZpbGwtcnVsZTpldmVub2RkO2NsaXAtcnVsZTpldmVub2RkO2ZpbGw6I0ZGRkZGRjtzdHJva2U6IzU1NkE4QTtzdHJva2Utd2lkdGg6MS41O3N0cm9rZS1taXRlcmxpbWl0OjM7IiBkPSIgICAgIE0wLDI5Ljk1YzAsMC44NSwwLjY5LDEuNTUsMS41NCwxLjU1aDM3LjQxYzAuODUsMCwxLjU1LTAuNjksMS41NS0xLjU0YzAsMCwwLTAuMDEsMC0wLjAxVjQuNTRDNDAuNSwzLjY5LDM5LjgsMywzOC45NSwzSDEuNTQgICAgIEMwLjY5LDMsMCwzLjY5LDAsNC41NFYyOS45NXoiLz4mI3hhOwkJPC9nPiYjeGE7CQk8ZyBpZD0iZ3JvdXAxODIxLTQiIHRyYW5zZm9ybT0idHJhbnNsYXRlKDExLjI1LC02KSI+JiN4YTsJCQk8dGl0bGUgaWQ9InRpdGxlMjMxMDQiPmczODA4LjI3NTkyPC90aXRsZT4mI3hhOwkJCTxnIGlkPSJzaGFwZTE4MjItNSIgdHJhbnNmb3JtPSJ0cmFuc2xhdGUoMC42OTc1LC04Ljk5MjUpIj4mI3hhOwkJCQk8dGl0bGUgaWQ9InRpdGxlMjMxMDYiPnBvbHlnb24zODAyPC90aXRsZT4mI3hhOwkJCQk8cGF0aCBpZD0icGF0aDIzMTA4IiBpbmtzY2FwZTpjb25uZWN0b3ItY3VydmF0dXJlPSIwIiBzdHlsZT0iZmlsbC1ydWxlOmV2ZW5vZGQ7Y2xpcC1ydWxlOmV2ZW5vZGQ7ZmlsbDojMkJDN0Y0OyIgZD0iICAgICAgTTYuOCwyNC4zNkwwLDI3LjgxbDYuOCwzLjY5bDYuNzUtMy43Nkw2LjgsMjQuMzZ6Ii8+JiN4YTsJCQk8L2c+JiN4YTsJCQk8ZyBpZD0ic2hhcGUxODIzLTciPiYjeGE7CQkJCTx0aXRsZSBpZD0idGl0bGUyMzExMSI+cG9seWdvbjM4MDQ8L3RpdGxlPiYjeGE7CQkJCTxwYXRoIGlkPSJwYXRoMjMxMTMiIGlua3NjYXBlOmNvbm5lY3Rvci1jdXJ2YXR1cmU9IjAiIHN0eWxlPSJmaWxsLXJ1bGU6ZXZlbm9kZDtjbGlwLXJ1bGU6ZXZlbm9kZDtmaWxsOiMyQkM3RjQ7IiBkPSJNMCwyNy42NCAgICAgIGw2Ljc1LDMuODZ2LTguMjdMMCwxOS41NlYyNy42NHoiLz4mI3hhOwkJCTwvZz4mI3hhOwkJCTxnIGlkPSJzaGFwZTE4MjQtOSIgdHJhbnNmb3JtPSJ0cmFuc2xhdGUoOC4yNSkiPiYjeGE7CQkJCTx0aXRsZSBpZD0idGl0bGUyMzExNiI+cG9seWdvbjM4MDY8L3RpdGxlPiYjeGE7CQkJCTxwYXRoIGlkPSJwYXRoMjMxMTgiIGlua3NjYXBlOmNvbm5lY3Rvci1jdXJ2YXR1cmU9IjAiIHN0eWxlPSJmaWxsLXJ1bGU6ZXZlbm9kZDtjbGlwLXJ1bGU6ZXZlbm9kZDtmaWxsOiMyQkM3RjQ7IiBkPSIgICAgICBNNi43NSwyNy42NEwwLDMxLjV2LTguMjdsNi43NS0zLjY3VjI3LjY0eiIvPiYjeGE7CQkJPC9nPiYjeGE7CQk8L2c+JiN4YTsJCTxnIGlkPSJzaGFwZTE4MjUtMTEiIHRyYW5zZm9ybT0idHJhbnNsYXRlKDM2Ljc1LC0xMS4yNSkiPiYjeGE7CQkJPHRpdGxlIGlkPSJ0aXRsZTIzMTIyIj5yZWN0Mzg0Ni4yNzYwODwvdGl0bGU+JiN4YTsJCQk8cGF0aCBpZD0icGF0aDIzMTI0IiBpbmtzY2FwZTpjb25uZWN0b3ItY3VydmF0dXJlPSIwIiBzdHlsZT0iZmlsbC1ydWxlOmV2ZW5vZGQ7Y2xpcC1ydWxlOmV2ZW5vZGQ7ZmlsbDojOURBOEI3OyIgZD0iTTAsMzAuNzUgICAgIGMwLDAuNDEsMC4zNCwwLjc1LDAuNzUsMC43NWMwLjQxLDAsMC43NS0wLjM0LDAuNzUtMC43NXYtNC41YzAtMC40MS0wLjM0LTAuNzUtMC43NS0wLjc1QzAuMzQsMjUuNSwwLDI1Ljg0LDAsMjYuMjVWMzAuNzV6Ii8+JiN4YTsJCTwvZz4mI3hhOwk8L2c+JiN4YTs8L2c+JiN4YTs8L3N2Zz4=;" vertex="1" parent="cizuM7O_poYgmAaUD8hP-8">
          <mxGeometry x="350" y="170" width="84" height="60" as="geometry" />
        </mxCell>
        <mxCell id="cizuM7O_poYgmAaUD8hP-18" value=".yml &#xa;&#xa;Files&#xa;" style="shape=image;verticalLabelPosition=bottom;labelBackgroundColor=#ffffff;verticalAlign=top;aspect=fixed;imageAspect=0;image=data:image/svg+xml,PHN2ZyB4bWxuczpjYz0iaHR0cDovL2NyZWF0aXZlY29tbW9ucy5vcmcvbnMjIiB4bWxuczpkYz0iaHR0cDovL3B1cmwub3JnL2RjL2VsZW1lbnRzLzEuMS8iIHhtbG5zOmlua3NjYXBlPSJodHRwOi8vd3d3Lmlua3NjYXBlLm9yZy9uYW1lc3BhY2VzL2lua3NjYXBlIiB4bWxuczpyZGY9Imh0dHA6Ly93d3cudzMub3JnLzE5OTkvMDIvMjItcmRmLXN5bnRheC1ucyMiIHhtbG5zOnNvZGlwb2RpPSJodHRwOi8vc29kaXBvZGkuc291cmNlZm9yZ2UubmV0L0RURC9zb2RpcG9kaS0wLmR0ZCIgeG1sbnM6c3ZnPSJodHRwOi8vd3d3LnczLm9yZy8yMDAwL3N2ZyIgeG1sbnM9Imh0dHA6Ly93d3cudzMub3JnLzIwMDAvc3ZnIiB4bWxuczp4bGluaz0iaHR0cDovL3d3dy53My5vcmcvMTk5OS94bGluayIgdmVyc2lvbj0iMS4xIiBpZD0ic3ZnMjMxMzAiIHg9IjBweCIgeT0iMHB4IiB2aWV3Qm94PSIwIDAgNDIgMzAiIHN0eWxlPSJlbmFibGUtYmFja2dyb3VuZDpuZXcgMCAwIDQyIDMwOyIgeG1sOnNwYWNlPSJwcmVzZXJ2ZSI+JiN4YTs8c29kaXBvZGk6bmFtZWR2aWV3IGJvcmRlcmNvbG9yPSIjNjY2NjY2IiBib3JkZXJvcGFjaXR5PSIxIiBmaXQtbWFyZ2luLWJvdHRvbT0iMCIgZml0LW1hcmdpbi1sZWZ0PSIwIiBmaXQtbWFyZ2luLXJpZ2h0PSIwIiBmaXQtbWFyZ2luLXRvcD0iMCIgZ3JpZHRvbGVyYW5jZT0iMTAiIGd1aWRldG9sZXJhbmNlPSIxMCIgaWQ9Im5hbWVkdmlldzIzMTMyIiBpbmtzY2FwZTpjdXJyZW50LWxheWVyPSJzdmcyMzEzMCIgaW5rc2NhcGU6Y3g9IjI2LjEzMzkyNSIgaW5rc2NhcGU6Y3k9IjE1Ljc4MzM2NSIgaW5rc2NhcGU6cGFnZW9wYWNpdHk9IjAiIGlua3NjYXBlOnBhZ2VzaGFkb3c9IjIiIGlua3NjYXBlOndpbmRvdy1oZWlnaHQ9IjEwMTciIGlua3NjYXBlOndpbmRvdy1tYXhpbWl6ZWQ9IjEiIGlua3NjYXBlOndpbmRvdy13aWR0aD0iMTkyMCIgaW5rc2NhcGU6d2luZG93LXg9Ii04IiBpbmtzY2FwZTp3aW5kb3cteT0iLTgiIGlua3NjYXBlOnpvb209IjE0LjU5NjcwNCIgb2JqZWN0dG9sZXJhbmNlPSIxMCIgcGFnZWNvbG9yPSIjZmZmZmZmIiBzaG93Z3JpZD0iZmFsc2UiPiYjeGE7CTwvc29kaXBvZGk6bmFtZWR2aWV3PiYjeGE7PGcgaWQ9ImcyMzEyOCIgdHJhbnNmb3JtPSJ0cmFuc2xhdGUoLTAuNzQ5OTkyMDMsLTAuNzQ5OTkyMDMpIj4mI3hhOwk8dGl0bGUgaWQ9InRpdGxlMjMwOTUiPlBhZ2UtMTwvdGl0bGU+JiN4YTsJPGcgaWQ9Imdyb3VwMTgxOS0xIiB0cmFuc2Zvcm09InRyYW5zbGF0ZSgxLjUsLTEuNSkiPiYjeGE7CQk8dGl0bGUgaWQ9InRpdGxlMjMwOTciPkFwcGxpY2F0aW9uICMxPC90aXRsZT4mI3hhOwkJPGcgaWQ9InNoYXBlMTgyMC0yIj4mI3hhOwkJCTx0aXRsZSBpZD0idGl0bGUyMzA5OSI+cmVjdDM3OTguMjc1OTE8L3RpdGxlPiYjeGE7CQkJJiN4YTsJCQkJPHBhdGggaWQ9InBhdGgyMzEwMSIgaW5rc2NhcGU6Y29ubmVjdG9yLWN1cnZhdHVyZT0iMCIgc3R5bGU9ImZpbGwtcnVsZTpldmVub2RkO2NsaXAtcnVsZTpldmVub2RkO2ZpbGw6I0ZGRkZGRjtzdHJva2U6IzU1NkE4QTtzdHJva2Utd2lkdGg6MS41O3N0cm9rZS1taXRlcmxpbWl0OjM7IiBkPSIgICAgIE0wLDI5Ljk1YzAsMC44NSwwLjY5LDEuNTUsMS41NCwxLjU1aDM3LjQxYzAuODUsMCwxLjU1LTAuNjksMS41NS0xLjU0YzAsMCwwLTAuMDEsMC0wLjAxVjQuNTRDNDAuNSwzLjY5LDM5LjgsMywzOC45NSwzSDEuNTQgICAgIEMwLjY5LDMsMCwzLjY5LDAsNC41NFYyOS45NXoiLz4mI3hhOwkJPC9nPiYjeGE7CQk8ZyBpZD0iZ3JvdXAxODIxLTQiIHRyYW5zZm9ybT0idHJhbnNsYXRlKDExLjI1LC02KSI+JiN4YTsJCQk8dGl0bGUgaWQ9InRpdGxlMjMxMDQiPmczODA4LjI3NTkyPC90aXRsZT4mI3hhOwkJCTxnIGlkPSJzaGFwZTE4MjItNSIgdHJhbnNmb3JtPSJ0cmFuc2xhdGUoMC42OTc1LC04Ljk5MjUpIj4mI3hhOwkJCQk8dGl0bGUgaWQ9InRpdGxlMjMxMDYiPnBvbHlnb24zODAyPC90aXRsZT4mI3hhOwkJCQk8cGF0aCBpZD0icGF0aDIzMTA4IiBpbmtzY2FwZTpjb25uZWN0b3ItY3VydmF0dXJlPSIwIiBzdHlsZT0iZmlsbC1ydWxlOmV2ZW5vZGQ7Y2xpcC1ydWxlOmV2ZW5vZGQ7ZmlsbDojMkJDN0Y0OyIgZD0iICAgICAgTTYuOCwyNC4zNkwwLDI3LjgxbDYuOCwzLjY5bDYuNzUtMy43Nkw2LjgsMjQuMzZ6Ii8+JiN4YTsJCQk8L2c+JiN4YTsJCQk8ZyBpZD0ic2hhcGUxODIzLTciPiYjeGE7CQkJCTx0aXRsZSBpZD0idGl0bGUyMzExMSI+cG9seWdvbjM4MDQ8L3RpdGxlPiYjeGE7CQkJCTxwYXRoIGlkPSJwYXRoMjMxMTMiIGlua3NjYXBlOmNvbm5lY3Rvci1jdXJ2YXR1cmU9IjAiIHN0eWxlPSJmaWxsLXJ1bGU6ZXZlbm9kZDtjbGlwLXJ1bGU6ZXZlbm9kZDtmaWxsOiMyQkM3RjQ7IiBkPSJNMCwyNy42NCAgICAgIGw2Ljc1LDMuODZ2LTguMjdMMCwxOS41NlYyNy42NHoiLz4mI3hhOwkJCTwvZz4mI3hhOwkJCTxnIGlkPSJzaGFwZTE4MjQtOSIgdHJhbnNmb3JtPSJ0cmFuc2xhdGUoOC4yNSkiPiYjeGE7CQkJCTx0aXRsZSBpZD0idGl0bGUyMzExNiI+cG9seWdvbjM4MDY8L3RpdGxlPiYjeGE7CQkJCTxwYXRoIGlkPSJwYXRoMjMxMTgiIGlua3NjYXBlOmNvbm5lY3Rvci1jdXJ2YXR1cmU9IjAiIHN0eWxlPSJmaWxsLXJ1bGU6ZXZlbm9kZDtjbGlwLXJ1bGU6ZXZlbm9kZDtmaWxsOiMyQkM3RjQ7IiBkPSIgICAgICBNNi43NSwyNy42NEwwLDMxLjV2LTguMjdsNi43NS0zLjY3VjI3LjY0eiIvPiYjeGE7CQkJPC9nPiYjeGE7CQk8L2c+JiN4YTsJCTxnIGlkPSJzaGFwZTE4MjUtMTEiIHRyYW5zZm9ybT0idHJhbnNsYXRlKDM2Ljc1LC0xMS4yNSkiPiYjeGE7CQkJPHRpdGxlIGlkPSJ0aXRsZTIzMTIyIj5yZWN0Mzg0Ni4yNzYwODwvdGl0bGU+JiN4YTsJCQk8cGF0aCBpZD0icGF0aDIzMTI0IiBpbmtzY2FwZTpjb25uZWN0b3ItY3VydmF0dXJlPSIwIiBzdHlsZT0iZmlsbC1ydWxlOmV2ZW5vZGQ7Y2xpcC1ydWxlOmV2ZW5vZGQ7ZmlsbDojOURBOEI3OyIgZD0iTTAsMzAuNzUgICAgIGMwLDAuNDEsMC4zNCwwLjc1LDAuNzUsMC43NWMwLjQxLDAsMC43NS0wLjM0LDAuNzUtMC43NXYtNC41YzAtMC40MS0wLjM0LTAuNzUtMC43NS0wLjc1QzAuMzQsMjUuNSwwLDI1Ljg0LDAsMjYuMjVWMzAuNzV6Ii8+JiN4YTsJCTwvZz4mI3hhOwk8L2c+JiN4YTs8L2c+JiN4YTs8L3N2Zz4=;" vertex="1" parent="cizuM7O_poYgmAaUD8hP-8">
          <mxGeometry x="210" y="70" width="84" height="60" as="geometry" />
        </mxCell>
        <mxCell id="cizuM7O_poYgmAaUD8hP-13" value="Ansible Docker Container" style="text;html=1;align=center;verticalAlign=middle;resizable=0;points=[];autosize=1;strokeColor=none;" vertex="1" parent="1">
          <mxGeometry x="145" y="330" width="170" height="20" as="geometry" />
        </mxCell>
        <mxCell id="cizuM7O_poYgmAaUD8hP-32" style="edgeStyle=orthogonalEdgeStyle;rounded=0;orthogonalLoop=1;jettySize=auto;html=1;" edge="1" parent="1" source="cizuM7O_poYgmAaUD8hP-20" target="cizuM7O_poYgmAaUD8hP-8">
          <mxGeometry relative="1" as="geometry" />
        </mxCell>
        <mxCell id="cizuM7O_poYgmAaUD8hP-20" value="JumpBox&#xa;Provisioner&#xa;" style="shape=image;verticalLabelPosition=bottom;labelBackgroundColor=#ffffff;verticalAlign=top;aspect=fixed;imageAspect=0;image=data:image/svg+xml,PHN2ZyB4bWxuczpjYz0iaHR0cDovL2NyZWF0aXZlY29tbW9ucy5vcmcvbnMjIiB4bWxuczpkYz0iaHR0cDovL3B1cmwub3JnL2RjL2VsZW1lbnRzLzEuMS8iIHhtbG5zOmlua3NjYXBlPSJodHRwOi8vd3d3Lmlua3NjYXBlLm9yZy9uYW1lc3BhY2VzL2lua3NjYXBlIiB4bWxuczpyZGY9Imh0dHA6Ly93d3cudzMub3JnLzE5OTkvMDIvMjItcmRmLXN5bnRheC1ucyMiIHhtbG5zOnNvZGlwb2RpPSJodHRwOi8vc29kaXBvZGkuc291cmNlZm9yZ2UubmV0L0RURC9zb2RpcG9kaS0wLmR0ZCIgeG1sbnM6c3ZnPSJodHRwOi8vd3d3LnczLm9yZy8yMDAwL3N2ZyIgeG1sbnM9Imh0dHA6Ly93d3cudzMub3JnLzIwMDAvc3ZnIiB4bWxuczp4bGluaz0iaHR0cDovL3d3dy53My5vcmcvMTk5OS94bGluayIgdmVyc2lvbj0iMS4xIiBpZD0ic3ZnMTM2NzYxIiBpbmtzY2FwZTp2ZXJzaW9uPSIwLjkyLjMgKDI0MDU1NDYsIDIwMTgtMDMtMTEpIiBzb2RpcG9kaTpkb2NuYW1lPSJhcHBsaWNhdGlvbl9zZXJ2ZXJfMS5zdmciIHg9IjBweCIgeT0iMHB4IiB2aWV3Qm94PSIwIDAgODMuODIgNzYuNzQiIHN0eWxlPSJlbmFibGUtYmFja2dyb3VuZDpuZXcgMCAwIDgzLjgyIDc2Ljc0OyIgeG1sOnNwYWNlPSJwcmVzZXJ2ZSI+JiN4YTs8c29kaXBvZGk6bmFtZWR2aWV3IGJvcmRlcmNvbG9yPSIjNjY2NjY2IiBib3JkZXJvcGFjaXR5PSIxIiBmaXQtbWFyZ2luLWJvdHRvbT0iMCIgZml0LW1hcmdpbi1sZWZ0PSIwIiBmaXQtbWFyZ2luLXJpZ2h0PSIwIiBmaXQtbWFyZ2luLXRvcD0iMCIgZ3JpZHRvbGVyYW5jZT0iMTAiIGd1aWRldG9sZXJhbmNlPSIxMCIgaWQ9Im5hbWVkdmlldzEzNjc2MyIgaW5rc2NhcGU6Y3VycmVudC1sYXllcj0ic3ZnMTM2NzYxIiBpbmtzY2FwZTpjeD0iNTYuMzc0OTUzIiBpbmtzY2FwZTpjeT0iNTAuNzM5MzA1IiBpbmtzY2FwZTpwYWdlb3BhY2l0eT0iMCIgaW5rc2NhcGU6cGFnZXNoYWRvdz0iMiIgaW5rc2NhcGU6d2luZG93LWhlaWdodD0iMTAxNyIgaW5rc2NhcGU6d2luZG93LW1heGltaXplZD0iMSIgaW5rc2NhcGU6d2luZG93LXdpZHRoPSIxOTIwIiBpbmtzY2FwZTp3aW5kb3cteD0iLTgiIGlua3NjYXBlOndpbmRvdy15PSItOCIgaW5rc2NhcGU6em9vbT0iOC40MDQ1MjUxIiBvYmplY3R0b2xlcmFuY2U9IjEwIiBwYWdlY29sb3I9IiNmZmZmZmYiIHNob3dncmlkPSJmYWxzZSI+JiN4YTsJPC9zb2RpcG9kaTpuYW1lZHZpZXc+JiN4YTs8ZyBpZD0iZzEzNjc1OSIgdHJhbnNmb3JtPSJ0cmFuc2xhdGUoLTYuMzczODA1MmUtNSw5LjRlLTQpIj4mI3hhOwk8dGl0bGUgaWQ9InRpdGxlMTM2NzA2Ij5QYWdlLTE8L3RpdGxlPiYjeGE7CTxnIGlkPSJncm91cDgwMDItMSIgdHJhbnNmb3JtPSJ0cmFuc2xhdGUoMCwtMC42MzA5NCkiPiYjeGE7CQk8dGl0bGUgaWQ9InRpdGxlMTM2NzA4Ij5BcHBsaWNhdGlvbiBTZXJ2ZXIgIzE8L3RpdGxlPiYjeGE7CQk8ZyBpZD0iZ3JvdXA4MDAzLTIiIHRyYW5zZm9ybT0idHJhbnNsYXRlKDM2LjkzNzUsLTAuMTE5MDYpIj4mI3hhOwkJCTx0aXRsZSBpZD0idGl0bGUxMzY3MTAiPlNoZWV0LjgwMDM8L3RpdGxlPiYjeGE7CQkJPGcgaWQ9InNoYXBlODAwNC0zIj4mI3hhOwkJCQk8dGl0bGUgaWQ9InRpdGxlMTM2NzEyIj5CaXpUYWxrIEFkbWluaXN0cmF0b3IgQ29uc29sZS4zMjQzPC90aXRsZT4mI3hhOwkJCQk8cGF0aCBpZD0icGF0aDEzNjcxNCIgaW5rc2NhcGU6Y29ubmVjdG9yLWN1cnZhdHVyZT0iMCIgc3R5bGU9ImZpbGw6IzNGNTc2NTsiIGQ9Ik00NS4yLDQ3LjM3SDEuNjdDMC43NSw0Ny4zNywwLDQ4LjEyLDAsNDkuMDQgICAgICBWNzUuN2MwLDAuOTIsMC43NSwxLjY3LDEuNjcsMS42N0g0NS4yYzAuOTMsMCwxLjY4LTAuNzUsMS42OC0xLjY3VjQ5LjA0QzQ2Ljg4LDQ4LjEyLDQ2LjEzLDQ3LjM3LDQ1LjIsNDcuMzd6Ii8+JiN4YTsJCQk8L2c+JiN4YTsJCQk8ZyBpZD0ic2hhcGU4MDA1LTUiIHRyYW5zZm9ybT0idHJhbnNsYXRlKDMuMTI1LC0zLjEyNSkiPiYjeGE7CQkJCTx0aXRsZSBpZD0idGl0bGUxMzY3MTciPkJpelRhbGsgQWRtaW5pc3RyYXRvciBDb25zb2xlLjMyNDQ8L3RpdGxlPiYjeGE7CQkJCTxyZWN0IGlkPSJyZWN0MTM2NzE5IiB4PSIwIiB5PSI1My42MiIgc3R5bGU9ImZpbGw6I0ZGRkZGRjsiIHdpZHRoPSI0MC42MyIgaGVpZ2h0PSIyMy43NSIvPiYjeGE7CQkJPC9nPiYjeGE7CQkJPGcgaWQ9InNoYXBlODAwNi03IiB0cmFuc2Zvcm09InRyYW5zbGF0ZSg4LjEyNSwtMTYuODc1KSI+JiN4YTsJCQkJPHRpdGxlIGlkPSJ0aXRsZTEzNjcyMiI+U2hlZXQuODAwNjwvdGl0bGU+JiN4YTsJCQkJPHJlY3QgaWQ9InJlY3QxMzY3MjQiIHg9IjAiIHk9IjcwLjQ5IiBzdHlsZT0iZmlsbDojOTJDRERDOyIgd2lkdGg9IjcuNSIgaGVpZ2h0PSI2Ljg4Ii8+JiN4YTsJCQk8L2c+JiN4YTsJCQk8ZyBpZD0ic2hhcGU4MDA3LTkiIHRyYW5zZm9ybT0idHJhbnNsYXRlKDE5LjM3NSwtMTYuODc1KSI+JiN4YTsJCQkJPHRpdGxlIGlkPSJ0aXRsZTEzNjcyNyI+U2hlZXQuODAwNzwvdGl0bGU+JiN4YTsJCQkJPHJlY3QgaWQ9InJlY3QxMzY3MjkiIHg9IjAiIHk9IjcwLjQ5IiBzdHlsZT0iZmlsbDojRjI1MDIyOyIgd2lkdGg9IjguMTMiIGhlaWdodD0iNi44OCIvPiYjeGE7CQkJPC9nPiYjeGE7CQkJPGcgaWQ9InNoYXBlODAwOC0xMSIgdHJhbnNmb3JtPSJ0cmFuc2xhdGUoMzEuMjUsLTE2Ljg3NSkiPiYjeGE7CQkJCTx0aXRsZSBpZD0idGl0bGUxMzY3MzIiPlNoZWV0LjgwMDg8L3RpdGxlPiYjeGE7CQkJCTxyZWN0IGlkPSJyZWN0MTM2NzM0IiB4PSIwIiB5PSI3MC40OSIgc3R5bGU9ImZpbGw6IzdGQkEwMDsiIHdpZHRoPSI3LjUiIGhlaWdodD0iNi44OCIvPiYjeGE7CQkJPC9nPiYjeGE7CQkJPGcgaWQ9InNoYXBlODAwOS0xMyIgdHJhbnNmb3JtPSJ0cmFuc2xhdGUoOC4xMjUsLTYuMjUpIj4mI3hhOwkJCQk8dGl0bGUgaWQ9InRpdGxlMTM2NzM3Ij5TaGVldC44MDA5PC90aXRsZT4mI3hhOwkJCQk8cmVjdCBpZD0icmVjdDEzNjczOSIgeD0iMCIgeT0iNzAuNDkiIHN0eWxlPSJmaWxsOiMwMEIwNTA7IiB3aWR0aD0iNy41IiBoZWlnaHQ9IjYuODgiLz4mI3hhOwkJCTwvZz4mI3hhOwkJCTxnIGlkPSJzaGFwZTgwMTAtMTUiIHRyYW5zZm9ybT0idHJhbnNsYXRlKDE5LjM3NSwtNi4yNSkiPiYjeGE7CQkJCTx0aXRsZSBpZD0idGl0bGUxMzY3NDIiPlNoZWV0LjgwMTA8L3RpdGxlPiYjeGE7CQkJCTxyZWN0IGlkPSJyZWN0MTM2NzQ0IiB4PSIwIiB5PSI3MC40OSIgc3R5bGU9ImZpbGw6IzAwQTRFRjsiIHdpZHRoPSI4LjEzIiBoZWlnaHQ9IjYuODgiLz4mI3hhOwkJCTwvZz4mI3hhOwkJCTxnIGlkPSJzaGFwZTgwMTEtMTciIHRyYW5zZm9ybT0idHJhbnNsYXRlKDMxLjI1LC02LjI1KSI+JiN4YTsJCQkJPHRpdGxlIGlkPSJ0aXRsZTEzNjc0NyI+U2hlZXQuODAxMTwvdGl0bGU+JiN4YTsJCQkJPHJlY3QgaWQ9InJlY3QxMzY3NDkiIHg9IjAiIHk9IjcwLjQ5IiBzdHlsZT0iZmlsbDojRkZCOTAwOyIgd2lkdGg9IjcuNSIgaGVpZ2h0PSI2Ljg4Ii8+JiN4YTsJCQk8L2c+JiN4YTsJCTwvZz4mI3hhOwkJPGcgaWQ9InNoYXBlODAxMi0xOSI+JiN4YTsJCQk8dGl0bGUgaWQ9InRpdGxlMTM2NzUzIj5TZXJ2ZXIuNjM8L3RpdGxlPiYjeGE7CQkJPHBhdGggaWQ9InBhdGgxMzY3NTUiIGlua3NjYXBlOmNvbm5lY3Rvci1jdXJ2YXR1cmU9IjAiIHN0eWxlPSJmaWxsOiMzRjU3NjU7IiBkPSJNMS44Niw0Ni45M1Y3MWwyMi40NCw0LjExdi0yNi45TDEuODYsNDYuOTN6ICAgICAgTTEuODYsNDAuMjF2NC42OGwyMi41NCwxLjEydi01LjQ1TDEuODYsNDAuMjF6IE0yNC40LDMzLjEzTDEuOTEsMzMuNDJ2NC42N2wyMi40OSwwLjQ5VjMzLjEzeiBNMjQuNTEsMjUuNTZsLTIyLjYsMS4xM3Y0Ljc0ICAgICBMMjQuNTEsMzFWMjUuNTZ6IE0yNC41NywxNy45OEwyLjAzLDE5Ljg5djQuODlsMjIuNTQtMS4zNVYxNy45OHogTTI0LjU3LDEwLjU1bC0yMi41LDIuNjJ2NC45NWwyMi41LTIuMDZWMTAuNTV6IE0yNC42MiwzLjA1ICAgICBMMi4xMyw2LjUydjQuNzRsMjIuNDktMi44M1YzLjA1eiBNMjYuOTEsMC42M2wxMy42LDUuNjdMMzkuOTcsNzFsLTEzLjgzLDYuMzdMMCw3Mi4yOFY1LjAyTDI2LjkxLDAuNjN6Ii8+JiN4YTsJCTwvZz4mI3hhOwk8L2c+JiN4YTs8L2c+JiN4YTs8L3N2Zz4=;" vertex="1" parent="1">
          <mxGeometry x="315.0000000000001" y="650" width="84" height="77" as="geometry" />
        </mxCell>
        <mxCell id="cizuM7O_poYgmAaUD8hP-37" style="edgeStyle=orthogonalEdgeStyle;rounded=0;orthogonalLoop=1;jettySize=auto;html=1;" edge="1" parent="1" source="cizuM7O_poYgmAaUD8hP-21" target="cizuM7O_poYgmAaUD8hP-23">
          <mxGeometry relative="1" as="geometry" />
        </mxCell>
        <mxCell id="cizuM7O_poYgmAaUD8hP-38" style="edgeStyle=orthogonalEdgeStyle;rounded=0;orthogonalLoop=1;jettySize=auto;html=1;" edge="1" parent="1" source="cizuM7O_poYgmAaUD8hP-21" target="cizuM7O_poYgmAaUD8hP-20">
          <mxGeometry relative="1" as="geometry" />
        </mxCell>
        <mxCell id="cizuM7O_poYgmAaUD8hP-21" value="Internet" style="outlineConnect=0;dashed=0;verticalLabelPosition=bottom;verticalAlign=top;align=center;html=1;shape=mxgraph.aws3.internet;fillColor=#D2D3D3;gradientColor=none;" vertex="1" parent="1">
          <mxGeometry x="200.5" y="760" width="79.5" height="79.5" as="geometry" />
        </mxCell>
        <mxCell id="cizuM7O_poYgmAaUD8hP-35" style="edgeStyle=orthogonalEdgeStyle;rounded=0;orthogonalLoop=1;jettySize=auto;html=1;" edge="1" parent="1" source="cizuM7O_poYgmAaUD8hP-22">
          <mxGeometry relative="1" as="geometry">
            <mxPoint x="200" y="785.4449999999999" as="targetPoint" />
          </mxGeometry>
        </mxCell>
        <mxCell id="cizuM7O_poYgmAaUD8hP-22" value="&lt;div&gt;User&lt;/div&gt;&lt;div&gt;&lt;br&gt;&lt;/div&gt;" style="aspect=fixed;perimeter=ellipsePerimeter;html=1;align=center;shadow=0;dashed=0;spacingTop=3;image;image=img/lib/active_directory/user.svg;" vertex="1" parent="1">
          <mxGeometry x="64" y="731.39" width="40" height="108.11" as="geometry" />
        </mxCell>
        <mxCell id="cizuM7O_poYgmAaUD8hP-39" style="edgeStyle=orthogonalEdgeStyle;rounded=0;orthogonalLoop=1;jettySize=auto;html=1;" edge="1" parent="1" source="cizuM7O_poYgmAaUD8hP-23">
          <mxGeometry relative="1" as="geometry">
            <mxPoint x="694" y="460" as="targetPoint" />
          </mxGeometry>
        </mxCell>
        <mxCell id="cizuM7O_poYgmAaUD8hP-23" value="&lt;div&gt;SSH &lt;br&gt;&lt;/div&gt;&lt;div&gt;Connection&lt;/div&gt;" style="shape=image;html=1;verticalAlign=top;verticalLabelPosition=bottom;labelBackgroundColor=#ffffff;imageAspect=0;aspect=fixed;image=https://cdn2.iconfinder.com/data/icons/stilllife/48x48/filesystems/gnome-fs-ssh.png" vertex="1" parent="1">
          <mxGeometry x="670" y="620" width="48" height="48" as="geometry" />
        </mxCell>
        <mxCell id="cizuM7O_poYgmAaUD8hP-24" value="Red Team Sec&#xa;" style="shape=image;verticalLabelPosition=bottom;labelBackgroundColor=#ffffff;verticalAlign=top;aspect=fixed;imageAspect=0;image=data:image/svg+xml,PHN2ZyB4bWxuczpldj0iaHR0cDovL3d3dy53My5vcmcvMjAwMS94bWwtZXZlbnRzIiB4bWxucz0iaHR0cDovL3d3dy53My5vcmcvMjAwMC9zdmciIHhtbG5zOnhsaW5rPSJodHRwOi8vd3d3LnczLm9yZy8xOTk5L3hsaW5rIiB2ZXJzaW9uPSIxLjEiIGlkPSJMYXllcl8xIiB4PSIwcHgiIHk9IjBweCIgdmlld0JveD0iMCAwIDI0LjcyIDI1LjAxIiBzdHlsZT0iZW5hYmxlLWJhY2tncm91bmQ6bmV3IDAgMCAyNC43MiAyNS4wMTsiIHhtbDpzcGFjZT0icHJlc2VydmUiPiYjeGE7PGc+JiN4YTsJPHRpdGxlPlBhZ2UtMTwvdGl0bGU+JiN4YTsJPGcgaWQ9Imdyb3VwMTY3My0xIj4mI3hhOwkJPHRpdGxlPkFjY2VzcyBDb250cm9sIFNlcnZpY2U8L3RpdGxlPiYjeGE7CQk8ZyBpZD0ic2hhcGUxNjc0LTIiPiYjeGE7CQkJPHRpdGxlPlNoZWV0LjE2NzQ8L3RpdGxlPiYjeGE7CQkJPHBhdGggc3R5bGU9ImZpbGw6IzNGNTc2NTsiIGQ9Ik0yNC43MiwxNC45TDEyLjQ3LDAuMjdWMC4wOEwxMi40LDAuMTVMMTIuMjQsMHYwLjM0TDAsMTQuODZsMTIuMzIsMTAuMDN2MC4xMkwyNC43MiwxNC45eiAgICAgIE0xMC44MywyMC4wM3YtNi4yNGMtMS4xNS0wLjYyLTEuOTItMS44NC0xLjkyLTMuM2MwLTIuMDMsMS41NC0zLjY3LDMuNDUtMy42NGMxLjkxLDAsMy40NCwxLjY1LDMuNDQsMy42NCAgICAgYzAsMS40Ni0wLjc2LDIuNjgtMS45MSwzLjN2MS4yMmwtMC4wNCwwLjEybC0xLjE1LDEuMjJsMS4xOSwxLjNsMC4wNCwwLjA4bC0xLjE1LDEuMTlsMS4wNywxLjE1bC0xLjQ5LDEuNTdMMTAuODMsMjAuMDN6Ii8+JiN4YTsJCTwvZz4mI3hhOwkJPGcgaWQ9InNoYXBlMTY3NS00IiB0cmFuc2Zvcm09InRyYW5zbGF0ZSgxMS4xMzM4LC0xNC4yODM1KSI+JiN4YTsJCQk8dGl0bGU+U2hlZXQuMTY3NTwvdGl0bGU+JiN4YTsJCQk8cGF0aCBzdHlsZT0iZmlsbDojM0Y1NzY1OyIgZD0iTTIuNTMsMjMuNzhjMC0wLjYxLTAuNzMtMS4wNy0xLjMxLTEuMTFDMC42MSwyMi43MSwwLDIzLjEzLDAsMjMuNzRzMC42MSwxLjI3LDEuMTksMS4yNyAgICAgQzEuNzYsMjUuMDEsMi41MywyNC4zOSwyLjUzLDIzLjc4eiIvPiYjeGE7CQk8L2c+JiN4YTsJPC9nPiYjeGE7PC9nPiYjeGE7PC9zdmc+;" vertex="1" parent="1">
          <mxGeometry x="663" y="390" width="55" height="55" as="geometry" />
        </mxCell>
      </root>
    </mxGraphModel>
  </diagram>
</mxfile>
